<svg xmlns="http://www.w3.org/2000/svg" xmlns:xlink="http://www.w3.org/1999/xlink" width="102" height="102" viewBox="0 0 102 102">
  <defs>
    <filter id="Elipse_11494" x="0" y="0" width="102" height="102" filterUnits="userSpaceOnUse">
      <feOffset dy="3" input="SourceAlpha"/>
      <feGaussianBlur stdDeviation="3" result="blur"/>
      <feFlood flood-opacity="0.161"/>
      <feComposite operator="in" in2="blur"/>
      <feComposite in="SourceGraphic"/>
    </filter>
  </defs>
  <g id="Grupo_1224421" data-name="Grupo 1224421" transform="translate(-1011 -1300.729)">
    <g id="Grupo_1223452" data-name="Grupo 1223452" transform="translate(1020 1306.729)">
      <g transform="matrix(1, 0, 0, 1, -9, -6)" filter="url(#Elipse_11494)">
        <g id="Elipse_11494-2" data-name="Elipse 11494" transform="translate(9 6)" fill="#e1e7fb" stroke="#fff" stroke-width="4">
          <circle cx="42" cy="42" r="42" stroke="none"/>
          <circle cx="42" cy="42" r="40" fill="none"/>
        </g>
      </g>
    </g>
    <g id="Grupo_1223658" data-name="Grupo 1223658" transform="translate(1043.557 1314.978)">
      <g id="Grupo_1223628" data-name="Grupo 1223628" transform="translate(2 3.749)">
        <g id="Grupo_1223588" data-name="Grupo 1223588" transform="translate(0.001 10.06)">
          <path id="Trazado_1297457" data-name="Trazado 1297457" d="M37.313,54.7l-.054,21.32a2.648,2.648,0,0,1-1.107,2.409L8.428,94.545a.275.275,0,0,0,.041-.028,2.62,2.62,0,0,1-2.715-.235A8.272,8.272,0,0,1,2,87.786l.058-21.322L29.789,50.353l1.906,1.1,0,0-.013,4.311L35.408,53.6Z" transform="translate(-2.004 -50.353)" fill="#5789dc"/>
        </g>
        <g id="Grupo_1223589" data-name="Grupo 1223589" transform="translate(1.908 11.159)">
          <path id="Trazado_1297458" data-name="Trazado 1297458" d="M41.733,80.1,14.01,96.215a1.319,1.319,0,0,1-1.324-.131,4.064,4.064,0,0,1-1.847-3.2l.061-21.32L38.623,55.445l-.061,21.32a4.106,4.106,0,0,0,1.855,3.209A1.3,1.3,0,0,0,41.733,80.1Z" transform="translate(-10.839 -55.445)" fill="#4075c1"/>
        </g>
        <g id="Grupo_1223590" data-name="Grupo 1223590" transform="translate(0.059 10.059)">
          <path id="Trazado_1297459" data-name="Trazado 1297459" d="M2.275,66.464,30,50.352l1.907,1.1L4.182,67.565Z" transform="translate(-2.275 -50.352)" fill="#5789dc"/>
        </g>
        <g id="Grupo_1223591" data-name="Grupo 1223591" transform="translate(3.651 0.001)">
          <path id="Trazado_1297460" data-name="Trazado 1297460" d="M47.258,41.117,21.217,56.154l-.87-.505c-1.366-.794-1.373-1.768-1.377-3.35l-.056-33.511L44.955,3.753l2.238,1.3Z" transform="translate(-18.914 -3.753)" fill="#dde9fe"/>
        </g>
        <g id="Grupo_1223592" data-name="Grupo 1223592" transform="translate(3.651 15.035)">
          <path id="Trazado_1297461" data-name="Trazado 1297461" d="M21.217,110.767l-.869-.505c-1.367-.794-1.372-1.768-1.377-3.348L18.915,73.4l2.239,1.3Z" transform="translate(-18.915 -73.402)" fill="#b3c9e2"/>
        </g>
        <g id="Grupo_1223593" data-name="Grupo 1223593" transform="translate(3.651 0)">
          <path id="Trazado_1297462" data-name="Trazado 1297462" d="M21.154,20.085l-2.239-1.3L44.956,3.749l2.239,1.3Z" transform="translate(-18.915 -3.749)" fill="#dde9fe"/>
        </g>
        <g id="Grupo_1223594" data-name="Grupo 1223594" transform="translate(5.89 1.301)">
          <path id="Trazado_1297463" data-name="Trazado 1297463" d="M55.327,9.776l.063,36.065L29.349,60.875l-.063-36.065Z" transform="translate(-29.286 -9.776)" fill="#c7d8ef"/>
        </g>
        <g id="Grupo_1223595" data-name="Grupo 1223595" transform="translate(6.915 3.072)">
          <path id="Trazado_1297464" data-name="Trazado 1297464" d="M34.033,31.834l24-13.855.059,33.7-24,13.854Z" transform="translate(-34.033 -17.979)" fill="#fff"/>
        </g>
        <g id="Grupo_1223596" data-name="Grupo 1223596" transform="translate(6.295 14.407)">
          <path id="Trazado_1297465" data-name="Trazado 1297465" d="M60.18,70.492l-.054,21.32a2.646,2.646,0,0,1-1.108,2.409L31.295,110.337a13.232,13.232,0,0,1,.516-2.437c-.581-8.379-1.35-18.4.639-21.3Z" transform="translate(-31.165 -70.492)" fill="#4075c1"/>
        </g>
        <g id="Grupo_1223597" data-name="Grupo 1223597" transform="translate(0 26.172)">
          <path id="Trazado_1297466" data-name="Trazado 1297466" d="M9.585,129.344l-.059,21.32c-.007,2.384-1.7,3.349-3.775,2.151A8.277,8.277,0,0,1,2,146.319L2.059,125l1.907,1.1-.059,21.32a4.083,4.083,0,0,0,1.85,3.2c1.023.591,1.858.115,1.862-1.061l.059-21.32c.909-.081,1.637.136,1.907,1.1Z" transform="translate(-2 -124.998)" fill="#3168aa"/>
        </g>
        <g id="Grupo_1223598" data-name="Grupo 1223598" transform="translate(5.678 13.306)">
          <path id="Trazado_1297467" data-name="Trazado 1297467" d="M28.3,81.5,56.03,65.39l1.907,1.1L30.212,82.6Z" transform="translate(-28.305 -65.39)" fill="#5789dc"/>
        </g>
        <g id="Grupo_1223599" data-name="Grupo 1223599" transform="translate(13.097 25.127)">
          <path id="Trazado_1297468" data-name="Trazado 1297468" d="M78.211,124.858a.281.281,0,0,0-.127-.268h.006l-.848-.492a.247.247,0,0,0-.2-.013l-.328.1a3.984,3.984,0,0,0-.477-.915.534.534,0,0,1,0-.5l.389-.95c.1-.246.078-.477-.063-.555h0l-.844-.492-1.038-.591a.3.3,0,0,0-.294.028.807.807,0,0,0-.218.2l-.632.814a.742.742,0,0,1-.214.194.4.4,0,0,1-.22.06,4.006,4.006,0,0,0-1.043.05l-.076-.319a.232.232,0,0,0-.125-.168l.015,0-.848-.492a.29.29,0,0,0-.3.03l-1.463.844a.923.923,0,0,0-.4.6l-.168.93a.984.984,0,0,1-.3.529,12.976,12.976,0,0,0-1.485,1.565.833.833,0,0,1-.218.2.35.35,0,0,1-.216.054l-.632-.084a.362.362,0,0,0-.22.054.872.872,0,0,0-.294.311l-1.032,1.787a.615.615,0,0,0-.058.622l.4.5a.534.534,0,0,1,0,.5,12.879,12.879,0,0,0-.611,2.064.977.977,0,0,1-.306.529l-.723.613a.916.916,0,0,0-.317.65l0,1.684a.294.294,0,0,0,.121.268l.848.492a.057.057,0,0,1-.013-.011.235.235,0,0,0,.212.024l.33-.1a3.91,3.91,0,0,0,.477.911.552.552,0,0,1,0,.5l-.391.952c-.1.246-.076.477.06.555l.848.492,1.038.591a.3.3,0,0,0,.3-.03.742.742,0,0,0,.218-.2l.63-.814a.781.781,0,0,1,.216-.194.375.375,0,0,1,.218-.056,4.026,4.026,0,0,0,1.045-.054l.076.322a.234.234,0,0,0,.11.162l.846.494a.008.008,0,0,0,0,0,.291.291,0,0,0,.3-.026l1.464-.846a.913.913,0,0,0,.4-.6l.168-.93a.994.994,0,0,1,.3-.529,12.693,12.693,0,0,0,1.485-1.569.846.846,0,0,1,.218-.192.353.353,0,0,1,.216-.054l.635.082a.342.342,0,0,0,.218-.054.829.829,0,0,0,.294-.309l1.03-1.787a.6.6,0,0,0,.06-.622l-.393-.5a.532.532,0,0,1,0-.5,12.6,12.6,0,0,0,.613-2.068.985.985,0,0,1,.307-.529l.721-.611a.923.923,0,0,0,.319-.65Zm-8.181,8.215a2.586,2.586,0,0,1-1.781.4,2.551,2.551,0,0,1-.538-1.707,6.931,6.931,0,0,1,3.145-5.448,2.571,2.571,0,0,1,1.783-.4,2.555,2.555,0,0,1,.537,1.707,6.937,6.937,0,0,1-3.147,5.448Z" transform="translate(-62.674 -120.157)" fill="#dde9fe"/>
        </g>
        <g id="Grupo_1223609" data-name="Grupo 1223609" transform="translate(13.096 25.127)">
          <g id="Grupo_1223606" data-name="Grupo 1223606" transform="translate(0 0)">
            <g id="Grupo_1223600" data-name="Grupo 1223600" transform="translate(5.954 17.127)">
              <path id="Trazado_1297469" data-name="Trazado 1297469" d="M91.381,200.889l-.173-.734A.243.243,0,0,0,91.1,200l-.848-.493a.243.243,0,0,1,.109.158l.173.734a.243.243,0,0,0,.109.164l.848.493A.244.244,0,0,1,91.381,200.889Z" transform="translate(-90.251 -199.504)" fill="#c7d8ef"/>
            </g>
            <g id="Grupo_1223601" data-name="Grupo 1223601" transform="translate(13.449 3.913)">
              <path id="Trazado_1297470" data-name="Trazado 1297470" d="M126.1,138.314a.245.245,0,0,0-.2-.013l-.721.222a.248.248,0,0,1-.2-.014l.848.493a.248.248,0,0,0,.2.014l.721-.222a.245.245,0,0,1,.2.013Z" transform="translate(-124.978 -138.286)" fill="#c7d8ef"/>
            </g>
            <g id="Grupo_1223602" data-name="Grupo 1223602" transform="translate(5.111 5.444)">
              <path id="Trazado_1297471" data-name="Trazado 1297471" d="M91.669,145.868l-.848-.493a2.21,2.21,0,0,1,.92,2.025,6.928,6.928,0,0,1-3.146,5.447,2.227,2.227,0,0,1-2.246.22l.848.493a2.227,2.227,0,0,0,2.246-.22,6.928,6.928,0,0,0,3.146-5.447A2.21,2.21,0,0,0,91.669,145.868Z" transform="translate(-86.349 -145.376)" fill="#c7d8ef"/>
            </g>
            <g id="Grupo_1223603" data-name="Grupo 1223603" transform="translate(8.744)">
              <path id="Trazado_1297472" data-name="Trazado 1297472" d="M107.479,120.776l-1.037-.591a.292.292,0,0,0-.293.028.776.776,0,0,0-.219.2l-.631.814a.758.758,0,0,1-.215.194.389.389,0,0,1-.219.059,4.254,4.254,0,0,0-1.489.148.252.252,0,0,1-.2-.017l.848.493a.252.252,0,0,0,.2.017,4.254,4.254,0,0,1,1.489-.148.389.389,0,0,0,.219-.059.758.758,0,0,0,.215-.194l.631-.814a.776.776,0,0,1,.219-.2.293.293,0,0,1,.293-.028l1.037.591Z" transform="translate(-103.179 -120.156)" fill="#c7d8ef"/>
            </g>
            <g id="Grupo_1223604" data-name="Grupo 1223604" transform="translate(1.247 14.445)">
              <path id="Trazado_1297473" data-name="Trazado 1297473" d="M69.4,187.73a.251.251,0,0,0-.111-.159l-.848-.493a.251.251,0,0,1,.111.159,4.23,4.23,0,0,0,.622,1.351.541.541,0,0,1,0,.5l-.391.953c-.1.246-.074.476.062.554l.848.493c-.136-.078-.161-.308-.062-.554l.391-.953a.541.541,0,0,0,0-.5A4.231,4.231,0,0,1,69.4,187.73Z" transform="translate(-68.446 -187.078)" fill="#c7d8ef"/>
            </g>
            <g id="Grupo_1223605" data-name="Grupo 1223605" transform="translate(0 0.369)">
              <path id="Trazado_1297474" data-name="Trazado 1297474" d="M69.234,125.319a.983.983,0,0,0,.3-.528l.168-.931a.923.923,0,0,1,.4-.6l1.464-.845a.3.3,0,0,1,.3-.03l-.848-.493a.3.3,0,0,0-.3.03l-1.464.845a.923.923,0,0,0-.4.6l-.168.931a.983.983,0,0,1-.3.528,12.818,12.818,0,0,0-1.484,1.567.813.813,0,0,1-.219.195.346.346,0,0,1-.215.054l-.634-.084a.354.354,0,0,0-.219.055.847.847,0,0,0-.294.311L64.29,128.71a.611.611,0,0,0-.058.623l.395.5a.535.535,0,0,1,0,.5,12.766,12.766,0,0,0-.612,2.064.981.981,0,0,1-.306.529l-.723.613a.921.921,0,0,0-.319.649l0,1.682a.293.293,0,0,0,.121.267l.848.493a.293.293,0,0,1-.121-.267l0-1.682a.92.92,0,0,1,.319-.649l.723-.613a.981.981,0,0,0,.306-.529,12.761,12.761,0,0,1,.612-2.064.535.535,0,0,0,0-.5l-.395-.5a.611.611,0,0,1,.058-.623l1.032-1.786a.848.848,0,0,1,.294-.311.354.354,0,0,1,.219-.055l.633.084a.346.346,0,0,0,.215-.054.813.813,0,0,0,.219-.195,12.819,12.819,0,0,1,1.484-1.567Z" transform="translate(-62.67 -121.864)" fill="#c7d8ef"/>
            </g>
          </g>
          <g id="Grupo_1223608" data-name="Grupo 1223608" transform="translate(0.848 0.493)">
            <g id="Grupo_1223607" data-name="Grupo 1223607">
              <path id="Trazado_1297475" data-name="Trazado 1297475" d="M80.967,126.367c.187-.058.321.058.321.28l0,1.682a.924.924,0,0,1-.319.649l-.72.61a.976.976,0,0,0-.307.528,12.723,12.723,0,0,1-.612,2.068.531.531,0,0,0,0,.5l.392.5a.6.6,0,0,1-.058.623l-1.031,1.785a.841.841,0,0,1-.293.31.354.354,0,0,1-.219.055l-.634-.084a.349.349,0,0,0-.217.055.805.805,0,0,0-.217.193,12.743,12.743,0,0,1-1.485,1.569.984.984,0,0,0-.3.527l-.168.931a.923.923,0,0,1-.4.6l-1.464.845c-.193.112-.361.057-.405-.134l-.173-.734a.228.228,0,0,0-.307-.175,4.284,4.284,0,0,1-1.488.149.374.374,0,0,0-.219.057.76.76,0,0,0-.215.195l-.631.814a.778.778,0,0,1-.219.2.3.3,0,0,1-.295.029l-1.039-.59c-.136-.078-.161-.308-.062-.554l.391-.953a.541.541,0,0,0,0-.5,4.231,4.231,0,0,1-.622-1.351.228.228,0,0,0-.308-.174l-.724.222c-.188.059-.321-.058-.321-.28l0-1.682a.921.921,0,0,1,.319-.649l.723-.613a.981.981,0,0,0,.306-.529,12.764,12.764,0,0,1,.612-2.064.535.535,0,0,0,0-.5l-.395-.5a.611.611,0,0,1,.058-.623l1.032-1.786a.847.847,0,0,1,.294-.311.354.354,0,0,1,.219-.055l.633.084a.346.346,0,0,0,.215-.054.812.812,0,0,0,.219-.195,12.818,12.818,0,0,1,1.484-1.567.983.983,0,0,0,.3-.528l.168-.931a.923.923,0,0,1,.4-.6l1.464-.845c.193-.112.361-.057.405.134l.173.734a.228.228,0,0,0,.306.176,4.254,4.254,0,0,1,1.489-.148.389.389,0,0,0,.219-.059.758.758,0,0,0,.215-.194l.631-.814a.777.777,0,0,1,.219-.2.292.292,0,0,1,.293-.028l1.037.591c.139.078.162.307.062.554l-.388.95a.537.537,0,0,0,0,.5,4.226,4.226,0,0,1,.622,1.356.227.227,0,0,0,.309.172Zm-7.012,8.988a6.928,6.928,0,0,0,3.146-5.447c-.006-2-1.422-2.812-3.166-1.8a6.933,6.933,0,0,0-3.146,5.449c.006,2,1.423,2.809,3.166,1.8" transform="translate(-66.597 -122.439)" fill="#dde9fe"/>
            </g>
          </g>
        </g>
        <g id="Grupo_1223627" data-name="Grupo 1223627" transform="translate(8.373 6.768)">
          <g id="Grupo_1223614" data-name="Grupo 1223614" transform="translate(0 5.674)">
            <g id="Grupo_1223611" data-name="Grupo 1223611" transform="translate(0 9.796)">
              <g id="Grupo_1223610" data-name="Grupo 1223610">
                <path id="Trazado_1297476" data-name="Trazado 1297476" d="M41.008,109.365a.216.216,0,0,1-.108-.4l3.738-2.158a.216.216,0,0,1,.216.374l-3.738,2.158A.215.215,0,0,1,41.008,109.365Z" transform="translate(-40.792 -106.775)" fill="#dde9fe"/>
              </g>
            </g>
            <g id="Grupo_1223613" data-name="Grupo 1223613" transform="translate(5.052)">
              <g id="Grupo_1223612" data-name="Grupo 1223612">
                <path id="Trazado_1297477" data-name="Trazado 1297477" d="M64.413,70.86a.216.216,0,0,1-.108-.4L79.958,61.42a.216.216,0,0,1,.216.374L64.52,70.831A.215.215,0,0,1,64.413,70.86Z" transform="translate(-64.197 -61.391)" fill="#dde9fe"/>
              </g>
            </g>
          </g>
          <g id="Grupo_1223619" data-name="Grupo 1223619" transform="translate(0 2.837)">
            <g id="Grupo_1223616" data-name="Grupo 1223616" transform="translate(0 7.331)">
              <g id="Grupo_1223615" data-name="Grupo 1223615">
                <path id="Trazado_1297478" data-name="Trazado 1297478" d="M41.008,87.265a.216.216,0,0,1-.108-.4l8.008-4.623a.216.216,0,1,1,.216.374l-8.008,4.623A.215.215,0,0,1,41.008,87.265Z" transform="translate(-40.792 -82.209)" fill="#dde9fe"/>
              </g>
            </g>
            <g id="Grupo_1223618" data-name="Grupo 1223618" transform="translate(9.715)">
              <g id="Grupo_1223617" data-name="Grupo 1223617">
                <path id="Trazado_1297479" data-name="Trazado 1297479" d="M86.014,55.024a.216.216,0,0,1-.108-.4L96.9,48.276a.216.216,0,0,1,.216.374L86.122,55A.215.215,0,0,1,86.014,55.024Z" transform="translate(-85.798 -48.247)" fill="#dde9fe"/>
              </g>
            </g>
          </g>
          <g id="Grupo_1223626" data-name="Grupo 1223626">
            <g id="Grupo_1223621" data-name="Grupo 1223621" transform="translate(0 8.859)">
              <g id="Grupo_1223620" data-name="Grupo 1223620">
                <path id="Trazado_1297480" data-name="Trazado 1297480" d="M41.008,79.673a.216.216,0,0,1-.108-.4l5.361-3.095a.216.216,0,1,1,.216.374l-5.361,3.095A.215.215,0,0,1,41.008,79.673Z" transform="translate(-40.792 -76.146)" fill="#dde9fe"/>
              </g>
            </g>
            <g id="Grupo_1223623" data-name="Grupo 1223623" transform="translate(6.659 6.57)">
              <g id="Grupo_1223622" data-name="Grupo 1223622">
                <path id="Trazado_1297481" data-name="Trazado 1297481" d="M71.86,67.513a.216.216,0,0,1-.108-.4l2.666-1.539a.216.216,0,0,1,.216.374l-2.666,1.539A.215.215,0,0,1,71.86,67.513Z" transform="translate(-71.644 -65.542)" fill="#dde9fe"/>
              </g>
            </g>
            <g id="Grupo_1223625" data-name="Grupo 1223625" transform="translate(10.638)">
              <g id="Grupo_1223624" data-name="Grupo 1223624">
                <path id="Trazado_1297482" data-name="Trazado 1297482" d="M90.291,41.347a.216.216,0,0,1-.108-.4l10.068-5.813a.216.216,0,1,1,.216.374L90.4,41.318A.215.215,0,0,1,90.291,41.347Z" transform="translate(-90.074 -35.103)" fill="#dde9fe"/>
              </g>
            </g>
          </g>
        </g>
      </g>
    </g>
  </g>
</svg>
