<svg xmlns="http://www.w3.org/2000/svg" xmlns:xlink="http://www.w3.org/1999/xlink" width="102" height="102" viewBox="0 0 102 102">
  <defs>
    <filter id="Elipse_11494" x="0" y="0" width="102" height="102" filterUnits="userSpaceOnUse">
      <feOffset dy="3" input="SourceAlpha"/>
      <feGaussianBlur stdDeviation="3" result="blur"/>
      <feFlood flood-opacity="0.161"/>
      <feComposite operator="in" in2="blur"/>
      <feComposite in="SourceGraphic"/>
    </filter>
  </defs>
  <g id="Grupo_1224423" data-name="Grupo 1224423" transform="translate(-1011 -1451.729)">
    <g id="Grupo_1223454" data-name="Grupo 1223454" transform="translate(1020 1457.729)">
      <g transform="matrix(1, 0, 0, 1, -9, -6)" filter="url(#Elipse_11494)">
        <g id="Elipse_11494-2" data-name="Elipse 11494" transform="translate(9 6)" fill="#e1e7fb" stroke="#fff" stroke-width="4">
          <circle cx="42" cy="42" r="42" stroke="none"/>
          <circle cx="42" cy="42" r="40" fill="none"/>
        </g>
      </g>
    </g>
    <g id="Grupo_1223813" data-name="Grupo 1223813" transform="translate(1036.836 1473.231)">
      <g id="Grupo_1223812" data-name="Grupo 1223812" transform="translate(6.706 1.998)">
        <g id="Grupo_1223691" data-name="Grupo 1223691" transform="translate(0 0)">
          <g id="Grupo_1223662" data-name="Grupo 1223662">
            <path id="Trazado_1297486" data-name="Trazado 1297486" d="M46.045,16.439C46.079,28.2,37.8,42.544,27.556,48.454c-5.258,3.037-10.013,3.261-13.4,1.172.065.043.13.083.2.121l-2.226-1.3c-3.335-1.936-5.4-6.053-5.42-11.893-.031-11.771,8.247-26.1,18.5-32.015,5.157-2.974,9.833-3.252,13.2-1.291l2.053,1.193c3.434,1.887,5.575,6.044,5.59,12Z" transform="translate(-6.706 -1.998)" fill="#dde9fe"/>
          </g>
          <g id="Grupo_1223663" data-name="Grupo 1223663" transform="translate(0.001 0.001)">
            <path id="Trazado_1297487" data-name="Trazado 1297487" d="M40.64,4.551c-3.376-1.961-8.05-1.683-13.2,1.291C17.192,11.756,8.913,26.085,8.945,37.856c.016,5.841,2.084,9.958,5.411,11.894l-2.227-1.3c-3.334-1.936-5.4-6.053-5.419-11.894-.033-11.771,8.246-26.1,18.5-32.014,5.157-2.973,9.832-3.251,13.2-1.291Z" transform="translate(-6.71 -2.002)" fill="#678aee"/>
          </g>
          <g id="Grupo_1223664" data-name="Grupo 1223664" transform="translate(2.234 1.295)">
            <path id="Trazado_1297488" data-name="Trazado 1297488" d="M35.147,10.31C45.39,4.4,53.724,9.14,53.758,20.91s-8.247,26.106-18.49,32.017-18.583,1.161-18.616-10.6,8.247-26.1,18.5-32.014Z" transform="translate(-16.651 -7.766)" fill="#c2d0f9"/>
          </g>
          <g id="Grupo_1223666" data-name="Grupo 1223666" transform="translate(8.727 9)">
            <g id="Grupo_1223665" data-name="Grupo 1223665">
              <path id="Trazado_1297489" data-name="Trazado 1297489" d="M45.564,64.149A28.292,28.292,0,0,1,56.936,44.51l2.27-1.31c6.038-2.866,10.869-.14,11.451,6.469l.016,2.6c-.5,7.277-5.319,15.637-11.386,19.761l-2.27,1.309c-6.072,2.879-10.917.1-11.455-6.58Z" transform="translate(-45.563 -42.067)" fill="#fff"/>
            </g>
          </g>
          <g id="Grupo_1223675" data-name="Grupo 1223675" transform="translate(5.964 7.402)">
            <g id="Grupo_1223668" data-name="Grupo 1223668" transform="translate(14.131)">
              <g id="Grupo_1223667" data-name="Grupo 1223667">
                <path id="Trazado_1297490" data-name="Trazado 1297490" d="M97.311,35.108c.626-.361,1.134-.072,1.136.647l.005,1.928,0,1.59a2.494,2.494,0,0,1-1.129,1.96c-.631.364-1.139.069-1.141-.65l0-1.59-.005-1.928A2.485,2.485,0,0,1,97.311,35.108Z" transform="translate(-96.177 -34.952)" fill="#285294"/>
              </g>
            </g>
            <g id="Grupo_1223670" data-name="Grupo 1223670" transform="translate(14.214 29.055)">
              <g id="Grupo_1223669" data-name="Grupo 1223669">
                <path id="Trazado_1297491" data-name="Trazado 1297491" d="M97.678,164.469c.626-.361,1.134-.072,1.136.647l0,1.7.005,1.814a2.494,2.494,0,0,1-1.129,1.96c-.631.364-1.139.069-1.141-.65l-.005-1.814,0-1.7A2.485,2.485,0,0,1,97.678,164.469Z" transform="translate(-96.544 -164.313)" fill="#285294"/>
              </g>
            </g>
            <g id="Grupo_1223672" data-name="Grupo 1223672" transform="translate(25.298 8.101)">
              <g id="Grupo_1223671" data-name="Grupo 1223671">
                <path id="Trazado_1297492" data-name="Trazado 1297492" d="M150.084,71.178c.626-.361,1.139-.075,1.141.65a2.494,2.494,0,0,1-1.134,1.957l-1.622.936-1.441.831c-.626.361-1.134.072-1.136-.647a2.485,2.485,0,0,1,1.129-1.96l1.432-.826Z" transform="translate(-145.892 -71.022)" fill="#285294"/>
              </g>
            </g>
            <g id="Grupo_1223674" data-name="Grupo 1223674" transform="translate(0 22.7)">
              <g id="Grupo_1223673" data-name="Grupo 1223673">
                <path id="Trazado_1297493" data-name="Trazado 1297493" d="M37.451,136.175c.626-.361,1.139-.075,1.141.65a2.494,2.494,0,0,1-1.134,1.957l-1.436.828-1.627.939c-.626.361-1.134.072-1.136-.647a2.485,2.485,0,0,1,1.129-1.96L36.024,137Z" transform="translate(-33.259 -136.019)" fill="#285294"/>
              </g>
            </g>
          </g>
          <g id="Grupo_1223690" data-name="Grupo 1223690" transform="translate(12.909 14.795)">
            <g id="Grupo_1223677" data-name="Grupo 1223677" transform="translate(0.001)">
              <g id="Grupo_1223676" data-name="Grupo 1223676">
                <path id="Trazado_1297494" data-name="Trazado 1297494" d="M80.932,74.046c.013,4.984-3.49,11.055-7.827,13.559-2.181,1.26-4.157,1.377-5.586.548l-.088-.052-.955-.555c-1.413-.82-2.284-2.565-2.291-5.04-.016-4.982,3.488-11.053,7.825-13.559,2.185-1.26,4.157-1.375,5.588-.546l.939.548.083.047c1.422.813,2.3,2.56,2.311,5.049Z" transform="translate(-64.186 -67.872)" fill="#b0c4ff"/>
              </g>
            </g>
            <g id="Grupo_1223681" data-name="Grupo 1223681" transform="translate(0 0.001)">
              <g id="Grupo_1223680" data-name="Grupo 1223680">
                <g id="Grupo_1223679" data-name="Grupo 1223679">
                  <g id="Grupo_1223678" data-name="Grupo 1223678">
                    <path id="Trazado_1297495" data-name="Trazado 1297495" d="M78.639,69.01c-1.43-.831-3.407-.713-5.587.547-4.338,2.506-7.842,8.577-7.827,13.558,0,2.476.88,4.22,2.291,5.041l-1.042-.606c-1.412-.82-2.284-2.565-2.291-5.041-.015-4.981,3.488-11.053,7.827-13.558,2.184-1.26,4.157-1.375,5.587-.547Z" transform="translate(-64.182 -67.874)" fill="#92b2f9"/>
                  </g>
                </g>
              </g>
            </g>
            <g id="Grupo_1223683" data-name="Grupo 1223683" transform="translate(1.04 0.606)">
              <g id="Grupo_1223682" data-name="Grupo 1223682">
                <path id="Trazado_1297496" data-name="Trazado 1297496" d="M76.643,71.645c4.337-2.5,7.863-.491,7.878,4.492S81.031,87.192,76.694,89.7s-7.866.492-7.88-4.491,3.49-11.055,7.829-13.56Z" transform="translate(-68.814 -70.568)" fill="#b0c4ff"/>
              </g>
            </g>
            <g id="Grupo_1223689" data-name="Grupo 1223689" transform="translate(4.283 4.489)">
              <g id="Grupo_1223688" data-name="Grupo 1223688">
                <g id="Grupo_1223685" data-name="Grupo 1223685" transform="translate(3.01)">
                  <g id="Grupo_1223684" data-name="Grupo 1223684">
                    <path id="Trazado_1297497" data-name="Trazado 1297497" d="M98.222,88.077c.865-.5,1.583-.108,1.586.9a3.473,3.473,0,0,1-1.576,2.713c-.859.5-1.578.105-1.581-.889a3.474,3.474,0,0,1,1.57-2.722Z" transform="translate(-96.652 -87.86)" fill="#6a95d3"/>
                  </g>
                </g>
                <g id="Grupo_1223687" data-name="Grupo 1223687" transform="translate(0 4.043)">
                  <g id="Grupo_1223686" data-name="Grupo 1223686">
                    <path id="Trazado_1297498" data-name="Trazado 1297498" d="M87.846,106.5c2.348-1.357,4.293-.485,4.621,1.929a1.252,1.252,0,0,1-.575,1.092l-8.055,4.654c-.351.2-.629,0-.58-.424a10.361,10.361,0,0,1,4.589-7.25Z" transform="translate(-83.252 -105.859)" fill="#6a95d3"/>
                  </g>
                </g>
              </g>
            </g>
          </g>
        </g>
      </g>
    </g>
  </g>
</svg>
