<svg xmlns="http://www.w3.org/2000/svg" xmlns:xlink="http://www.w3.org/1999/xlink" width="102" height="102" viewBox="0 0 102 102">
  <defs>
    <filter id="Elipse_11494" x="0" y="0" width="102" height="102" filterUnits="userSpaceOnUse">
      <feOffset dy="3" input="SourceAlpha"/>
      <feGaussianBlur stdDeviation="3" result="blur"/>
      <feFlood flood-opacity="0.161"/>
      <feComposite operator="in" in2="blur"/>
      <feComposite in="SourceGraphic"/>
    </filter>
  </defs>
  <g id="Grupo_1224420" data-name="Grupo 1224420" transform="translate(-696 -1300.729)">
    <g id="Grupo_1219743" data-name="Grupo 1219743" transform="translate(705 1306.729)">
      <g transform="matrix(1, 0, 0, 1, -9, -6)" filter="url(#Elipse_11494)">
        <g id="Elipse_11494-2" data-name="Elipse 11494" transform="translate(9 6)" fill="#e1e7fb" stroke="#fff" stroke-width="4">
          <circle cx="42" cy="42" r="42" stroke="none"/>
          <circle cx="42" cy="42" r="40" fill="none"/>
        </g>
      </g>
    </g>
    <g id="Grupo_1223587" data-name="Grupo 1223587" transform="translate(713.232 1315.212)">
      <g id="Grupo_1223556" data-name="Grupo 1223556" transform="translate(8.37 1.518)">
        <g id="Grupo_1223537" data-name="Grupo 1223537">
          <path id="Trazado_1297358" data-name="Trazado 1297358" d="M87,136.513a1.428,1.428,0,0,1-.843,1.181l-23.4,13.5a4.447,4.447,0,0,1-4.045,0l-15.766-9.163a1.412,1.412,0,0,1-.833-1.164l-.007-1.781a1.434,1.434,0,0,1,.843-1.181l23.4-13.507a4.462,4.462,0,0,1,4.045,0l15.768,9.166a1.417,1.417,0,0,1,.831,1.166Z" transform="translate(-35.444 -94.185)" fill="#92b2f9"/>
          <g id="Grupo_1223465" data-name="Grupo 1223465" transform="translate(6.668 40.551)">
            <path id="Trazado_1297359" data-name="Trazado 1297359" d="M87,170.224a1.427,1.427,0,0,1-.843,1.18l-23.4,13.506a4.458,4.458,0,0,1-4.044,0l-15.767-9.163a1.417,1.417,0,0,1-.832-1.165l-.008-1.782a1.417,1.417,0,0,0,.832,1.165l15.767,9.163a4.458,4.458,0,0,0,4.044,0l23.4-13.506A1.43,1.43,0,0,0,87,168.446Z" transform="translate(-42.114 -168.446)" fill="#3168aa"/>
          </g>
          <path id="Trazado_1297360" data-name="Trazado 1297360" d="M42.954,137.912a1.238,1.238,0,0,0-.012,2.343l15.769,9.164a4.455,4.455,0,0,0,4.044,0l23.4-13.507a1.238,1.238,0,0,0,.012-2.343l-15.769-9.164a4.457,4.457,0,0,0-4.044,0Z" transform="translate(-35.444 -94.186)" fill="#92b2f9"/>
          <path id="Trazado_1297361" data-name="Trazado 1297361" d="M46.2,46.721l-24.074,13.9a1.788,1.788,0,0,1-1.448.214l-1.28-.4a2.045,2.045,0,0,1-1.288-1.715L14.725,40.036a4.119,4.119,0,0,1,1.725-4.074l24.071-13.9a1.788,1.788,0,0,1,1.448-.211l1.261.4a2.041,2.041,0,0,1,1.307,1.717l3.389,18.681A4.129,4.129,0,0,1,46.2,46.721Z" transform="translate(-14.667 -16.857)" fill="#b0c4ff"/>
          <g id="Grupo_1223466" data-name="Grupo 1223466" transform="translate(0 4.922)">
            <path id="Trazado_1297362" data-name="Trazado 1297362" d="M43.245,22.252a1.784,1.784,0,0,0-1.445.213l-24.073,13.9A4.127,4.127,0,0,0,16,40.439L19.391,59.12a2.049,2.049,0,0,0,1.289,1.714l-1.28-.4a2.046,2.046,0,0,1-1.289-1.714L14.722,40.037a4.126,4.126,0,0,1,1.725-4.076l24.073-13.9a1.784,1.784,0,0,1,1.445-.213Z" transform="translate(-14.665 -21.78)" fill="#3168aa"/>
          </g>
          <path id="Trazado_1297363" data-name="Trazado 1297363" d="M45.786,23.719c1.231-.711,2.457-.039,2.736,1.5L51.91,43.9a4.127,4.127,0,0,1-1.725,4.076l-24.072,13.9c-1.232.712-2.458.04-2.737-1.5L19.987,41.692a4.127,4.127,0,0,1,1.726-4.075Z" transform="translate(-18.651 -18.111)" fill="#b0c4ff"/>
          <path id="Trazado_1297364" data-name="Trazado 1297364" d="M54.582,53.416,31.289,66.87a.763.763,0,0,1-1.132-.524L26.881,48.29a2.482,2.482,0,0,1,.911-2.321L50.818,32.677a.979.979,0,0,1,1.452.67L55.493,51.1a2.479,2.479,0,0,1-.911,2.321Z" transform="translate(-23.89 -25.008)" fill="#5789dc"/>
          <g id="Grupo_1223467" data-name="Grupo 1223467" transform="translate(9.959 31.365)">
            <path id="Trazado_1297365" data-name="Trazado 1297365" d="M110.173,147.954v-.4a.336.336,0,0,0,.007.049.357.357,0,0,1,.219-.364l1.29-.743a1.187,1.187,0,0,1,1.081,0l1.283.746a.374.374,0,0,1,.221.311v0l0,.4a.385.385,0,0,1-.226.316l-1.29.743a1.192,1.192,0,0,1-1.083,0l-1.28-.743A.388.388,0,0,1,110.173,147.954Z" transform="translate(-96.931 -142.541)" fill="#dde9fe"/>
            <path id="Trazado_1297366" data-name="Trazado 1297366" d="M59.54,179.734l-1.287.743a1.2,1.2,0,0,1-1.083,0l-1.283-.743a.38.38,0,0,1-.221-.311l0-.4a.157.157,0,0,0,.01.046.354.354,0,0,1,.219-.362l1.29-.746a1.194,1.194,0,0,1,1.081,0l1.28.746a.38.38,0,0,1,.224.311v.4a.385.385,0,0,1-.226.316Z" transform="translate(-55.663 -166.366)" fill="#dde9fe"/>
            <path id="Trazado_1297367" data-name="Trazado 1297367" d="M154.726,155.275v.4a.379.379,0,0,1-.226.313l-1.287.746a1.2,1.2,0,0,1-1.083,0l-1.283-.746a.374.374,0,0,1-.221-.311l0-.4a.26.26,0,0,0,.007.046.361.361,0,0,1,.219-.362l1.29-.743a1.192,1.192,0,0,1,1.083,0l1.28.746A.38.38,0,0,1,154.726,155.275Z" transform="translate(-127.555 -148.39)" fill="#dde9fe"/>
            <path id="Trazado_1297368" data-name="Trazado 1297368" d="M120.472,163.139l0,.4a.385.385,0,0,1-.226.316l-7.91,4.567a1.2,1.2,0,0,1-1.083,0l-1.28-.746a.38.38,0,0,1-.223-.311v-.4a.335.335,0,0,0,.007.049.358.358,0,0,1,.216-.364l7.91-4.565a1.184,1.184,0,0,1,1.083,0l1.283.743A.377.377,0,0,1,120.472,163.139Z" transform="translate(-96.612 -154.345)" fill="#dde9fe"/>
            <path id="Trazado_1297369" data-name="Trazado 1297369" d="M168.355,147.808a.385.385,0,0,1-.226.316l-1.29.743a1.2,1.2,0,0,1-1.083,0l-1.28-.743a.38.38,0,0,1-.221-.313l0-.4a.193.193,0,0,0,.01.049.356.356,0,0,1,.216-.367l1.29-.743a1.194,1.194,0,0,1,1.081,0l1.283.746a.377.377,0,0,1,.221.311Z" transform="translate(-137.873 -142.434)" fill="#dde9fe"/>
            <path id="Trazado_1297370" data-name="Trazado 1297370" d="M82.713,178.952a.359.359,0,0,0,.007.046.353.353,0,0,1,.219-.362l1.287-.746a1.2,1.2,0,0,1,1.083,0l1.28.746a.38.38,0,0,1,.223.311v.4a.385.385,0,0,1-.226.316l-1.288.743a1.2,1.2,0,0,1-1.083,0l-1.28-.746a.377.377,0,0,1-.223-.309Z" transform="translate(-76.141 -166.313)" fill="#dde9fe"/>
            <path id="Trazado_1297371" data-name="Trazado 1297371" d="M69.292,171.154a.157.157,0,0,0,.01.049.352.352,0,0,1,.216-.364l1.29-.743a1.179,1.179,0,0,1,1.081,0l1.283.743a.377.377,0,0,1,.221.311l0,.4a.385.385,0,0,1-.226.316l-1.29.743a1.184,1.184,0,0,1-1.083,0l-1.28-.743a.38.38,0,0,1-.221-.311Z" transform="translate(-65.981 -160.409)" fill="#dde9fe"/>
            <path id="Trazado_1297372" data-name="Trazado 1297372" d="M100.223,186.739l0,.4a.385.385,0,0,1-.226.316l-1.29.743a1.184,1.184,0,0,1-1.083,0l-1.28-.743a.377.377,0,0,1-.221-.311l0-.4a.273.273,0,0,0,.007.044.356.356,0,0,1,.219-.36l1.287-.743a1.184,1.184,0,0,1,1.083,0l1.283.743A.377.377,0,0,1,100.223,186.739Z" transform="translate(-86.294 -172.212)" fill="#dde9fe"/>
            <path id="Trazado_1297373" data-name="Trazado 1297373" d="M72.959,187.532l-1.29.746a1.2,1.2,0,0,1-1.083,0l-1.28-.746a.382.382,0,0,1-.224-.311v-.4a.3.3,0,0,0,.007.046.357.357,0,0,1,.219-.364l1.29-.743a1.194,1.194,0,0,1,1.081,0l1.28.743a.381.381,0,0,1,.224.313l0,.4a.385.385,0,0,1-.226.313Z" transform="translate(-65.822 -172.271)" fill="#dde9fe"/>
            <path id="Trazado_1297374" data-name="Trazado 1297374" d="M82.923,163.688v-.4a.336.336,0,0,0,.007.049.357.357,0,0,1,.219-.364l1.29-.743a1.187,1.187,0,0,1,1.081,0l1.283.743a.377.377,0,0,1,.221.311l0,.4A.385.385,0,0,1,86.8,164l-1.29.746a1.192,1.192,0,0,1-1.083,0L83.146,164A.38.38,0,0,1,82.923,163.688Z" transform="translate(-76.3 -154.454)" fill="#dde9fe"/>
            <path id="Trazado_1297375" data-name="Trazado 1297375" d="M97.839,172.538l-1.283-.743a.38.38,0,0,1-.221-.311l0-.4a.273.273,0,0,0,.007.044.358.358,0,0,1,.219-.36l1.29-.743a1.192,1.192,0,0,1,1.083,0l1.28.746a.38.38,0,0,1,.223.311v.4a.385.385,0,0,1-.226.316l-1.29.743A1.187,1.187,0,0,1,97.839,172.538Z" transform="translate(-86.453 -160.355)" fill="#dde9fe"/>
            <path id="Trazado_1297376" data-name="Trazado 1297376" d="M96.542,155.422a.174.174,0,0,0,.01.046.353.353,0,0,1,.219-.362l1.288-.746a1.194,1.194,0,0,1,1.081,0l1.283.746a.38.38,0,0,1,.223.311v.4a.379.379,0,0,1-.226.313l-1.29.746a1.194,1.194,0,0,1-1.081,0l-1.283-.746a.373.373,0,0,1-.221-.309Z" transform="translate(-86.612 -148.499)" fill="#dde9fe"/>
            <path id="Trazado_1297377" data-name="Trazado 1297377" d="M111.466,164.672l-1.28-.746a.38.38,0,0,1-.223-.311v-.4a.292.292,0,0,0,.007.049.357.357,0,0,1,.219-.364l1.29-.743a1.179,1.179,0,0,1,1.081,0l1.28.743a.378.378,0,0,1,.223.313l0,.4a.385.385,0,0,1-.226.316l-1.29.746A1.2,1.2,0,0,1,111.466,164.672Z" transform="translate(-96.771 -154.398)" fill="#dde9fe"/>
            <path id="Trazado_1297378" data-name="Trazado 1297378" d="M138.716,148.938l-1.28-.743a.388.388,0,0,1-.223-.311v-.4a.333.333,0,0,0,.007.049.356.356,0,0,1,.219-.364l1.29-.746a1.194,1.194,0,0,1,1.081,0l1.28.746a.372.372,0,0,1,.223.311l0,.4a.385.385,0,0,1-.226.316l-1.29.743A1.2,1.2,0,0,1,138.716,148.938Z" transform="translate(-117.402 -142.487)" fill="#dde9fe"/>
            <path id="Trazado_1297379" data-name="Trazado 1297379" d="M125.089,156.808l-1.283-.746a.379.379,0,0,1-.221-.311l0-.4a.142.142,0,0,0,.01.046.351.351,0,0,1,.216-.36l1.29-.746a1.2,1.2,0,0,1,1.083,0l1.28.743a.387.387,0,0,1,.223.313v.4a.385.385,0,0,1-.226.318l-1.29.743A1.194,1.194,0,0,1,125.089,156.808Z" transform="translate(-107.083 -148.446)" fill="#dde9fe"/>
            <path id="Trazado_1297380" data-name="Trazado 1297380" d="M137.425,132.221l0-.4a.274.274,0,0,0,.007.044.361.361,0,0,1,.219-.362l1.29-.743a1.194,1.194,0,0,1,1.081,0l1.283.746a.377.377,0,0,1,.221.311l0,.4a.379.379,0,0,1-.226.313l-1.29.746a1.2,1.2,0,0,1-1.083,0l-1.28-.746A.374.374,0,0,1,137.425,132.221Z" transform="translate(-117.561 -130.631)" fill="#dde9fe"/>
            <path id="Trazado_1297381" data-name="Trazado 1297381" d="M151.069,139.3l1.29-.743a1.187,1.187,0,0,1,1.081,0l1.28.743a.38.38,0,0,1,.223.311v.4a.381.381,0,0,1-.223.316l-1.29.743a1.184,1.184,0,0,1-1.083,0l-1.28-.743a.38.38,0,0,1-.224-.311v-.4a.263.263,0,0,0,.007.046A.354.354,0,0,1,151.069,139.3Z" transform="translate(-127.721 -136.534)" fill="#dde9fe"/>
            <path id="Trazado_1297382" data-name="Trazado 1297382" d="M86.6,194.609v.4a.385.385,0,0,1-.226.316l-1.288.743a1.184,1.184,0,0,1-1.083,0l-1.283-.743a.38.38,0,0,1-.221-.311l0-.4a.273.273,0,0,0,.007.044.357.357,0,0,1,.219-.36l1.29-.746a1.191,1.191,0,0,1,1.083,0l1.28.743A.38.38,0,0,1,86.6,194.609Z" transform="translate(-75.975 -178.169)" fill="#dde9fe"/>
            <path id="Trazado_1297383" data-name="Trazado 1297383" d="M123.792,139.69a.172.172,0,0,0,.01.049.356.356,0,0,1,.219-.364l1.29-.743a1.194,1.194,0,0,1,1.081,0l1.28.743a.383.383,0,0,1,.223.313v.4a.385.385,0,0,1-.226.316l-1.288.746a1.2,1.2,0,0,1-1.083,0l-1.283-.746a.374.374,0,0,1-.221-.311Z" transform="translate(-107.242 -136.59)" fill="#dde9fe"/>
          </g>
          <g id="Grupo_1223488" data-name="Grupo 1223488" transform="translate(9.96 31.365)">
            <g id="Grupo_1223468" data-name="Grupo 1223468" transform="translate(0 1.186)">
              <path id="Trazado_1297384" data-name="Trazado 1297384" d="M137.648,136.228l1.281.744a1.194,1.194,0,0,0,1.083,0l1.29-.744a.382.382,0,0,0,.225-.315v-.4a.382.382,0,0,1-.225.315l-1.289.744a1.194,1.194,0,0,1-1.083,0l-1.281-.744a.379.379,0,0,1-.222-.311v.4A.379.379,0,0,0,137.648,136.228Z" transform="translate(-117.564 -135.512)" fill="#b3c9e2"/>
              <path id="Trazado_1297385" data-name="Trazado 1297385" d="M124.02,144.1l1.281.745a1.194,1.194,0,0,0,1.083,0l1.289-.744a.382.382,0,0,0,.225-.315v-.4a.382.382,0,0,1-.225.315l-1.29.744a1.194,1.194,0,0,1-1.083,0l-1.281-.745a.379.379,0,0,1-.222-.311v.4A.379.379,0,0,0,124.02,144.1Z" transform="translate(-107.247 -141.469)" fill="#b3c9e2"/>
              <path id="Trazado_1297386" data-name="Trazado 1297386" d="M110.4,151.961l1.281.744a1.192,1.192,0,0,0,1.082,0l1.29-.744a.383.383,0,0,0,.226-.316v-.4a.383.383,0,0,1-.226.316l-1.29.745a1.192,1.192,0,0,1-1.082,0l-1.281-.744a.38.38,0,0,1-.222-.311v.4A.38.38,0,0,0,110.4,151.961Z" transform="translate(-96.931 -147.423)" fill="#b3c9e2"/>
              <path id="Trazado_1297387" data-name="Trazado 1297387" d="M96.769,159.83l1.281.744a1.194,1.194,0,0,0,1.083,0l1.29-.744a.382.382,0,0,0,.225-.315v-.4a.382.382,0,0,1-.225.315l-1.289.744a1.194,1.194,0,0,1-1.083,0l-1.281-.745a.379.379,0,0,1-.222-.311v.4A.379.379,0,0,0,96.769,159.83Z" transform="translate(-86.616 -153.381)" fill="#b3c9e2"/>
              <path id="Trazado_1297388" data-name="Trazado 1297388" d="M83.144,167.694l1.281.745a1.192,1.192,0,0,0,1.082,0l1.289-.745a.383.383,0,0,0,.226-.316v-.4a.383.383,0,0,1-.226.316l-1.29.745a1.192,1.192,0,0,1-1.082,0l-1.281-.744a.38.38,0,0,1-.222-.311v.4A.38.38,0,0,0,83.144,167.694Z" transform="translate(-76.3 -159.335)" fill="#b3c9e2"/>
              <path id="Trazado_1297389" data-name="Trazado 1297389" d="M69.518,175.562l1.281.745a1.2,1.2,0,0,0,1.083,0l1.288-.744a.383.383,0,0,0,.226-.316v-.4a.383.383,0,0,1-.226.316l-1.288.744a1.194,1.194,0,0,1-1.083,0l-1.281-.745a.379.379,0,0,1-.222-.311v.4A.379.379,0,0,0,69.518,175.562Z" transform="translate(-65.984 -165.291)" fill="#b3c9e2"/>
              <path id="Trazado_1297390" data-name="Trazado 1297390" d="M59.77,183.116v-.4a.382.382,0,0,1-.225.315l-1.289.744a1.194,1.194,0,0,1-1.083,0l-1.281-.744a.379.379,0,0,1-.222-.311v.4a.379.379,0,0,0,.222.311l1.281.745a1.194,1.194,0,0,0,1.083,0l1.29-.745A.382.382,0,0,0,59.77,183.116Z" transform="translate(-55.667 -171.249)" fill="#b3c9e2"/>
              <path id="Trazado_1297391" data-name="Trazado 1297391" d="M150.84,143.313v.4a.379.379,0,0,0,.222.311l1.281.744a1.194,1.194,0,0,0,1.083,0l1.289-.744a.382.382,0,0,0,.225-.315v-.4a.382.382,0,0,1-.225.315l-1.29.744a1.194,1.194,0,0,1-1.083,0l-1.281-.745A.379.379,0,0,1,150.84,143.313Z" transform="translate(-127.72 -141.415)" fill="#b3c9e2"/>
              <path id="Trazado_1297392" data-name="Trazado 1297392" d="M139.8,152.637l1.289-.745a.382.382,0,0,0,.225-.315v-.4a.382.382,0,0,1-.225.315l-1.289.744a1.194,1.194,0,0,1-1.083,0l-1.281-.745a.379.379,0,0,1-.222-.311v.4a.379.379,0,0,0,.222.311l1.281.745A1.2,1.2,0,0,0,139.8,152.637Z" transform="translate(-117.403 -147.372)" fill="#b3c9e2"/>
              <path id="Trazado_1297393" data-name="Trazado 1297393" d="M126.174,160.5l1.29-.745a.383.383,0,0,0,.226-.316v-.4a.383.383,0,0,1-.226.316l-1.289.744a1.192,1.192,0,0,1-1.082,0l-1.281-.745a.38.38,0,0,1-.222-.311v.4a.38.38,0,0,0,.222.311l1.281.745A1.192,1.192,0,0,0,126.174,160.5Z" transform="translate(-107.088 -153.325)" fill="#b3c9e2"/>
              <path id="Trazado_1297394" data-name="Trazado 1297394" d="M112.549,168.37l1.289-.744a.382.382,0,0,0,.225-.315v-.4a.382.382,0,0,1-.225.315l-1.29.745a1.194,1.194,0,0,1-1.083,0l-1.281-.745a.379.379,0,0,1-.222-.311v.4a.379.379,0,0,0,.222.311l1.281.744A1.194,1.194,0,0,0,112.549,168.37Z" transform="translate(-96.772 -159.283)" fill="#b3c9e2"/>
              <path id="Trazado_1297395" data-name="Trazado 1297395" d="M98.923,176.235l1.289-.744a.383.383,0,0,0,.226-.316v-.4a.383.383,0,0,1-.226.316l-1.289.744a1.192,1.192,0,0,1-1.082,0l-1.281-.745a.38.38,0,0,1-.222-.311v.4a.38.38,0,0,0,.222.311l1.281.745A1.192,1.192,0,0,0,98.923,176.235Z" transform="translate(-86.457 -165.237)" fill="#b3c9e2"/>
              <path id="Trazado_1297396" data-name="Trazado 1297396" d="M86.585,182.958,85.3,183.7a1.194,1.194,0,0,1-1.083,0l-1.281-.745a.379.379,0,0,1-.222-.311v.4a.379.379,0,0,0,.222.311l1.281.744a1.194,1.194,0,0,0,1.083,0l1.288-.744a.383.383,0,0,0,.226-.316v-.4A.383.383,0,0,1,86.585,182.958Z" transform="translate(-76.141 -171.194)" fill="#b3c9e2"/>
              <path id="Trazado_1297397" data-name="Trazado 1297397" d="M73.185,190.912v-.4a.382.382,0,0,1-.225.315l-1.29.744a1.194,1.194,0,0,1-1.083,0l-1.281-.745a.379.379,0,0,1-.222-.311v.4a.379.379,0,0,0,.222.311l1.281.745a1.194,1.194,0,0,0,1.083,0l1.29-.745A.382.382,0,0,0,73.185,190.912Z" transform="translate(-65.824 -177.151)" fill="#b3c9e2"/>
              <path id="Trazado_1297398" data-name="Trazado 1297398" d="M168.355,151.1a.382.382,0,0,1-.225.315l-1.289.744a1.194,1.194,0,0,1-1.083,0l-1.281-.744a.38.38,0,0,1-.222-.312v.4a.38.38,0,0,0,.222.312l1.281.745a1.2,1.2,0,0,0,1.083,0l1.289-.745a.382.382,0,0,0,.225-.315Z" transform="translate(-137.875 -147.317)" fill="#b3c9e2"/>
              <path id="Trazado_1297399" data-name="Trazado 1297399" d="M154.5,159.288l-1.289.744a1.194,1.194,0,0,1-1.083,0l-1.281-.745a.38.38,0,0,1-.222-.312v.4a.38.38,0,0,0,.222.312l1.281.744a1.194,1.194,0,0,0,1.083,0l1.29-.744a.382.382,0,0,0,.225-.315v-.4A.382.382,0,0,1,154.5,159.288Z" transform="translate(-127.558 -153.274)" fill="#b3c9e2"/>
              <path id="Trazado_1297400" data-name="Trazado 1297400" d="M120.245,167.153l-7.909,4.567a1.192,1.192,0,0,1-1.082,0l-1.281-.745a.381.381,0,0,1-.223-.312v.4a.381.381,0,0,0,.223.312l1.281.744a1.192,1.192,0,0,0,1.082,0l7.91-4.567a.383.383,0,0,0,.226-.316v-.4a.383.383,0,0,1-.226.316Z" transform="translate(-96.611 -159.228)" fill="#b3c9e2"/>
              <path id="Trazado_1297401" data-name="Trazado 1297401" d="M100,190.754l-1.288.744a1.194,1.194,0,0,1-1.083,0l-1.281-.745a.38.38,0,0,1-.222-.312v.4a.38.38,0,0,0,.222.312l1.281.745a1.194,1.194,0,0,0,1.083,0l1.288-.744a.383.383,0,0,0,.226-.316v-.4A.383.383,0,0,1,100,190.754Z" transform="translate(-86.296 -177.096)" fill="#b3c9e2"/>
              <path id="Trazado_1297402" data-name="Trazado 1297402" d="M86.372,198.622l-1.29.744a1.194,1.194,0,0,1-1.083,0l-1.281-.745a.38.38,0,0,1-.222-.312v.4a.38.38,0,0,0,.222.312l1.281.745a1.194,1.194,0,0,0,1.083,0l1.289-.744a.382.382,0,0,0,.225-.315v-.4A.382.382,0,0,1,86.372,198.622Z" transform="translate(-75.978 -183.053)" fill="#b3c9e2"/>
            </g>
            <g id="Grupo_1223469" data-name="Grupo 1223469" transform="translate(19.861)">
              <path id="Trazado_1297403" data-name="Trazado 1297403" d="M137.651,131.5a.331.331,0,0,0,0,.627l1.281.745a1.194,1.194,0,0,0,1.083,0l1.29-.744a.331.331,0,0,0,0-.627l-1.281-.745a1.192,1.192,0,0,0-1.081,0Z" transform="translate(-137.425 -130.631)" fill="#dde9fe"/>
            </g>
            <g id="Grupo_1223470" data-name="Grupo 1223470" transform="translate(16.55 1.911)">
              <path id="Trazado_1297404" data-name="Trazado 1297404" d="M124.024,139.372a.331.331,0,0,0,0,.627l1.281.745a1.194,1.194,0,0,0,1.083,0l1.289-.744a.331.331,0,0,0,0-.627l-1.281-.745a1.19,1.19,0,0,0-1.081,0Z" transform="translate(-123.798 -138.498)" fill="#dde9fe"/>
            </g>
            <g id="Grupo_1223471" data-name="Grupo 1223471" transform="translate(13.24 3.822)">
              <path id="Trazado_1297405" data-name="Trazado 1297405" d="M110.4,147.239a.331.331,0,0,0,0,.626l1.281.745a1.192,1.192,0,0,0,1.082,0l1.29-.745a.332.332,0,0,0,0-.627l-1.281-.744a1.192,1.192,0,0,0-1.082,0Z" transform="translate(-110.172 -146.364)" fill="#dde9fe"/>
            </g>
            <g id="Grupo_1223472" data-name="Grupo 1223472" transform="translate(9.93 5.733)">
              <path id="Trazado_1297406" data-name="Trazado 1297406" d="M96.773,155.105a.331.331,0,0,0,0,.627l1.281.745a1.194,1.194,0,0,0,1.083,0l1.29-.745a.331.331,0,0,0,0-.627l-1.281-.745a1.19,1.19,0,0,0-1.081,0Z" transform="translate(-96.546 -154.231)" fill="#dde9fe"/>
            </g>
            <g id="Grupo_1223473" data-name="Grupo 1223473" transform="translate(6.62 7.644)">
              <path id="Trazado_1297407" data-name="Trazado 1297407" d="M83.146,162.972a.331.331,0,0,0,0,.626l1.281.745a1.192,1.192,0,0,0,1.082,0L86.8,163.6a.332.332,0,0,0,0-.627l-1.281-.745a1.192,1.192,0,0,0-1.082,0Z" transform="translate(-82.921 -162.097)" fill="#dde9fe"/>
            </g>
            <g id="Grupo_1223474" data-name="Grupo 1223474" transform="translate(3.31 9.555)">
              <path id="Trazado_1297408" data-name="Trazado 1297408" d="M69.521,170.84a.331.331,0,0,0,0,.627l1.281.745a1.194,1.194,0,0,0,1.083,0l1.288-.744a.332.332,0,0,0,0-.627l-1.281-.745a1.192,1.192,0,0,0-1.082,0Z" transform="translate(-69.295 -169.966)" fill="#dde9fe"/>
            </g>
            <g id="Grupo_1223475" data-name="Grupo 1223475" transform="translate(0 11.466)">
              <path id="Trazado_1297409" data-name="Trazado 1297409" d="M55.894,178.707a.331.331,0,0,0,0,.627l1.281.745a1.2,1.2,0,0,0,1.083,0l1.289-.745a.331.331,0,0,0,0-.627l-1.281-.745a1.19,1.19,0,0,0-1.081,0Z" transform="translate(-55.667 -177.833)" fill="#dde9fe"/>
            </g>
            <g id="Grupo_1223476" data-name="Grupo 1223476" transform="translate(23.12 1.894)">
              <path id="Trazado_1297410" data-name="Trazado 1297410" d="M151.066,139.3a.331.331,0,0,0,0,.627l1.281.745a1.194,1.194,0,0,0,1.083,0l1.29-.744a.331.331,0,0,0,0-.627l-1.281-.745a1.192,1.192,0,0,0-1.081,0Z" transform="translate(-150.84 -138.427)" fill="#dde9fe"/>
            </g>
            <g id="Grupo_1223477" data-name="Grupo 1223477" transform="translate(19.809 3.805)">
              <path id="Trazado_1297411" data-name="Trazado 1297411" d="M137.439,147.168a.331.331,0,0,0,0,.627l1.281.745a1.194,1.194,0,0,0,1.083,0l1.289-.745a.331.331,0,0,0,0-.627l-1.281-.745a1.19,1.19,0,0,0-1.081,0Z" transform="translate(-137.213 -146.294)" fill="#dde9fe"/>
            </g>
            <g id="Grupo_1223478" data-name="Grupo 1223478" transform="translate(16.499 5.716)">
              <path id="Trazado_1297412" data-name="Trazado 1297412" d="M123.813,155.035a.331.331,0,0,0,0,.626l1.281.745a1.192,1.192,0,0,0,1.082,0l1.29-.745a.332.332,0,0,0,0-.627l-1.281-.745a1.192,1.192,0,0,0-1.082,0Z" transform="translate(-123.587 -154.16)" fill="#dde9fe"/>
            </g>
            <g id="Grupo_1223479" data-name="Grupo 1223479" transform="translate(13.189 7.627)">
              <path id="Trazado_1297413" data-name="Trazado 1297413" d="M110.188,162.9a.331.331,0,0,0,0,.627l1.281.745a1.194,1.194,0,0,0,1.083,0l1.29-.744a.331.331,0,0,0,0-.627l-1.281-.745a1.19,1.19,0,0,0-1.081,0Z" transform="translate(-109.962 -162.028)" fill="#dde9fe"/>
            </g>
            <g id="Grupo_1223480" data-name="Grupo 1223480" transform="translate(9.879 9.538)">
              <path id="Trazado_1297414" data-name="Trazado 1297414" d="M96.562,170.768a.331.331,0,0,0,0,.626l1.281.745a1.192,1.192,0,0,0,1.082,0l1.289-.744a.332.332,0,0,0,0-.627l-1.281-.745a1.192,1.192,0,0,0-1.082,0Z" transform="translate(-96.336 -169.893)" fill="#dde9fe"/>
            </g>
            <g id="Grupo_1223481" data-name="Grupo 1223481" transform="translate(6.569 11.449)">
              <path id="Trazado_1297415" data-name="Trazado 1297415" d="M82.937,178.636a.331.331,0,0,0,0,.627l1.281.745a1.194,1.194,0,0,0,1.083,0l1.288-.744a.332.332,0,0,0,0-.627l-1.281-.745a1.192,1.192,0,0,0-1.082,0Z" transform="translate(-82.71 -177.762)" fill="#dde9fe"/>
            </g>
            <g id="Grupo_1223482" data-name="Grupo 1223482" transform="translate(3.259 13.36)">
              <path id="Trazado_1297416" data-name="Trazado 1297416" d="M69.309,186.5a.331.331,0,0,0,0,.627l1.281.745a1.194,1.194,0,0,0,1.083,0l1.289-.744a.331.331,0,0,0,0-.627l-1.281-.745a1.19,1.19,0,0,0-1.081,0Z" transform="translate(-69.082 -185.629)" fill="#dde9fe"/>
            </g>
            <g id="Grupo_1223483" data-name="Grupo 1223483" transform="translate(26.378 3.787)">
              <path id="Trazado_1297417" data-name="Trazado 1297417" d="M164.479,147.1a.332.332,0,0,0,0,.627l1.281.745a1.194,1.194,0,0,0,1.083,0l1.29-.745a.331.331,0,0,0,0-.627l-1.281-.745a1.194,1.194,0,0,0-1.082,0Z" transform="translate(-164.253 -146.222)" fill="#dde9fe"/>
            </g>
            <g id="Grupo_1223484" data-name="Grupo 1223484" transform="translate(23.068 5.699)">
              <path id="Trazado_1297418" data-name="Trazado 1297418" d="M150.852,154.963a.332.332,0,0,0,0,.627l1.281.745a1.194,1.194,0,0,0,1.083,0l1.29-.744a.331.331,0,0,0,0-.627l-1.281-.745a1.192,1.192,0,0,0-1.082,0Z" transform="translate(-150.626 -154.089)" fill="#dde9fe"/>
            </g>
            <g id="Grupo_1223485" data-name="Grupo 1223485" transform="translate(13.138 7.609)">
              <path id="Trazado_1297419" data-name="Trazado 1297419" d="M109.974,166.652a.331.331,0,0,0,0,.627l1.281.745a1.192,1.192,0,0,0,1.082,0l7.909-4.567a.332.332,0,0,0,0-.627l-1.281-.745a1.194,1.194,0,0,0-1.083,0Z" transform="translate(-109.749 -161.955)" fill="#dde9fe"/>
            </g>
            <g id="Grupo_1223486" data-name="Grupo 1223486" transform="translate(9.828 13.343)">
              <path id="Trazado_1297420" data-name="Trazado 1297420" d="M96.349,186.431a.332.332,0,0,0,0,.627l1.281.744a1.194,1.194,0,0,0,1.083,0l1.288-.744a.332.332,0,0,0,0-.627l-1.281-.745a1.194,1.194,0,0,0-1.083,0Z" transform="translate(-96.123 -185.557)" fill="#dde9fe"/>
            </g>
            <g id="Grupo_1223487" data-name="Grupo 1223487" transform="translate(6.517 15.254)">
              <path id="Trazado_1297421" data-name="Trazado 1297421" d="M82.722,194.3a.332.332,0,0,0,0,.627l1.281.745a1.194,1.194,0,0,0,1.083,0l1.29-.744a.331.331,0,0,0,0-.627l-1.281-.745a1.192,1.192,0,0,0-1.082,0Z" transform="translate(-82.496 -193.423)" fill="#dde9fe"/>
            </g>
          </g>
          <g id="Grupo_1223489" data-name="Grupo 1223489" transform="translate(26.983 41.794)">
            <path id="Trazado_1297422" data-name="Trazado 1297422" d="M126.28,177.665a.792.792,0,0,0-.008,1.5l3.06,1.778a2.853,2.853,0,0,0,2.587,0l6.57-3.793a.791.791,0,0,0,.006-1.5l-3.06-1.778a2.848,2.848,0,0,0-2.585,0Z" transform="translate(-125.74 -173.562)" fill="#4075c1"/>
            <path id="Trazado_1297423" data-name="Trazado 1297423" d="M139.983,177.95l-.013-.02c-.014-.016-.028-.032-.043-.047-.031-.033-.064-.064-.1-.094-.012-.01-.119-.1-.069-.059-.034-.027-.07-.052-.1-.078a.556.556,0,0,1-.14-.157.5.5,0,0,1-.092-.031,2.5,2.5,0,0,1-.522-.354,1.133,1.133,0,0,1-.627-.275.34.34,0,0,1-.1-.145,5.057,5.057,0,0,1-.676-.277.394.394,0,0,1-.21-.273h0a.474.474,0,0,1-.113-.041,2.892,2.892,0,0,0-2.6-.344,13.967,13.967,0,0,0-1.794,1.115.382.382,0,0,1-.262.075.446.446,0,0,1-.129.054,1.816,1.816,0,0,0-.217.072l-.938.542c-.39.281-.771.589-1.118.788a14.505,14.505,0,0,0-2.45,1.362.393.393,0,0,1-.083.275.722.722,0,0,0,.295.279l3.06,1.778a2.44,2.44,0,0,0,2.166,0l6.57-3.793a.616.616,0,0,0,.317-.34Z" transform="translate(-127.136 -175.078)" fill="#92b2f9"/>
            <path id="Trazado_1297424" data-name="Trazado 1297424" d="M139.918,177.705a.253.253,0,0,1-.039.126.765.765,0,0,0-.286-.255l-3.061-1.777a2.2,2.2,0,0,0-1.082-.255,2.241,2.241,0,0,0-1.079.252l-6.57,3.8a.751.751,0,0,0-.292.261.254.254,0,0,1-.039-.126c0-.126.123-.272.331-.39l6.57-3.792a2.416,2.416,0,0,1,2.161,0l3.061,1.777c.2.118.325.263.325.384Z" transform="translate(-127.049 -174.869)" fill="#3168aa"/>
          </g>
          <path id="Trazado_1297425" data-name="Trazado 1297425" d="M64.8,27.116a3.565,3.565,0,0,1-1.618,2.8L45.068,40.375a1.141,1.141,0,0,1-1.154.112l-.015-.01h0l-.67-.389a1.134,1.134,0,0,1-.471-1.042L42.712,15a3.565,3.565,0,0,1,1.618-2.8L62.442,1.74a1.144,1.144,0,0,1,1.151-.114l.687.4a.216.216,0,0,0-.041-.019,1.109,1.109,0,0,1,.515,1.062Z" transform="translate(-35.899 -1.518)" fill="#dde9fe"/>
          <g id="Grupo_1223491" data-name="Grupo 1223491" transform="translate(6.814 0)">
            <g id="Grupo_1223490" data-name="Grupo 1223490">
              <path id="Trazado_1297426" data-name="Trazado 1297426" d="M64.283,2.027a1.145,1.145,0,0,0-1.154.113L45.018,12.6A3.559,3.559,0,0,0,43.4,15.4l.041,24.051a1.138,1.138,0,0,0,.474,1.041l-.687-.4a1.136,1.136,0,0,1-.472-1.041L42.715,15a3.565,3.565,0,0,1,1.617-2.8L62.444,1.741A1.142,1.142,0,0,1,63.6,1.628Z" transform="translate(-42.715 -1.519)" fill="#92b2f9"/>
            </g>
          </g>
          <path id="Trazado_1297427" data-name="Trazado 1297427" d="M65.267,3.382c.9-.517,1.624-.1,1.627.927l.041,24.05a3.564,3.564,0,0,1-1.617,2.8L47.208,41.617c-.9.517-1.624.1-1.627-.928l-.041-24.05a3.563,3.563,0,0,1,1.617-2.8Z" transform="translate(-38.039 -2.76)" fill="#dde9fe"/>
          <path id="Trazado_1297428" data-name="Trazado 1297428" d="M50.292,20.633a2.44,2.44,0,0,1,1.039-1.8L69.338,8.44l.041,23.92a2.441,2.441,0,0,1-1.039,1.8l-18.007,10.4Z" transform="translate(-41.637 -6.758)" fill="#fff"/>
          <path id="Trazado_1297429" data-name="Trazado 1297429" d="M76.759,12.454a1.305,1.305,0,0,1-.593,1.025L57.537,24.236a.409.409,0,0,1-.437.032L56.643,24a.414.414,0,0,1-.175-.384l0-1.761a1.3,1.3,0,0,1,.593-1.025l18.63-10.757a.414.414,0,0,1,.423-.041l.449.262a.05.05,0,0,1,.022.012.41.41,0,0,1,.175.379Z" transform="translate(-46.309 -7.936)" fill="#285294"/>
          <g id="Grupo_1223493" data-name="Grupo 1223493" transform="translate(10.154 2.06)">
            <g id="Grupo_1223492" data-name="Grupo 1223492">
              <path id="Trazado_1297430" data-name="Trazado 1297430" d="M76.581,10.31a.42.42,0,0,0-.423.042L57.528,21.108a1.3,1.3,0,0,0-.592,1.025l.005,1.763a.419.419,0,0,0,.173.381L56.643,24a.415.415,0,0,1-.173-.383l-.005-1.763a1.3,1.3,0,0,1,.592-1.025l18.63-10.756a.42.42,0,0,1,.423-.042Z" transform="translate(-56.465 -9.996)" fill="#263966"/>
            </g>
          </g>
          <path id="Trazado_1297431" data-name="Trazado 1297431" d="M77.63,11.206c.328-.19.595-.038.6.339l0,1.763a1.3,1.3,0,0,1-.592,1.025L59.008,25.09c-.328.19-.595.038-.6-.339l0-1.763A1.3,1.3,0,0,1,59,21.962Z" transform="translate(-47.782 -8.791)" fill="#285294"/>
          <g id="Grupo_1223494" data-name="Grupo 1223494" transform="translate(11.679 12.194)">
            <path id="Trazado_1297432" data-name="Trazado 1297432" d="M63.127,58.346c.213-.123.387-.024.388.22a.85.85,0,0,1-.385.667c-.213.123-.386.024-.387-.221A.848.848,0,0,1,63.127,58.346Z" transform="translate(-62.742 -56.695)" fill="#fff"/>
            <path id="Trazado_1297433" data-name="Trazado 1297433" d="M68.824,55.057c.213-.123.386-.024.387.221a.848.848,0,0,1-.385.667c-.213.123-.386.024-.387-.221A.848.848,0,0,1,68.824,55.057Z" transform="translate(-67.055 -54.206)" fill="#fff"/>
            <path id="Trazado_1297434" data-name="Trazado 1297434" d="M74.521,51.768c.213-.123.386-.024.387.221a.848.848,0,0,1-.385.667c-.213.123-.386.024-.387-.221A.848.848,0,0,1,74.521,51.768Z" transform="translate(-71.368 -51.715)" fill="#fff"/>
          </g>
          <g id="Grupo_1223536" data-name="Grupo 1223536" transform="translate(10.783 15.414)">
            <g id="Grupo_1223519" data-name="Grupo 1223519" transform="translate(0 5.442)">
              <g id="Grupo_1223508" data-name="Grupo 1223508" transform="translate(0 0.687)">
                <g id="Grupo_1223507" data-name="Grupo 1223507">
                  <path id="Trazado_1297446" data-name="Trazado 1297446" d="M61.276,90.271c.289-.167.524-.032.525.3l.006,1.955a1.15,1.15,0,0,1-.521.9l-1.7.983c-.289.167-.524.032-.525-.3l-.006-1.955a1.15,1.15,0,0,1,.521-.9Z" transform="translate(-59.052 -90.199)" fill="#dde9fe"/>
                </g>
              </g>
              <g id="Grupo_1223510" data-name="Grupo 1223510" transform="translate(0 4.973)">
                <g id="Grupo_1223509" data-name="Grupo 1223509">
                  <path id="Trazado_1297447" data-name="Trazado 1297447" d="M61.276,107.914c.289-.167.524-.032.525.3l.006,1.955a1.15,1.15,0,0,1-.521.9l-1.7.983c-.289.167-.524.032-.525-.3l-.006-1.955a1.15,1.15,0,0,1,.521-.9Z" transform="translate(-59.052 -107.842)" fill="#dde9fe"/>
                </g>
              </g>
              <g id="Grupo_1223512" data-name="Grupo 1223512" transform="translate(0 9.259)">
                <g id="Grupo_1223511" data-name="Grupo 1223511">
                  <path id="Trazado_1297448" data-name="Trazado 1297448" d="M61.276,125.557c.289-.167.524-.032.525.3l.006,1.955a1.15,1.15,0,0,1-.521.9l-1.7.983c-.289.167-.524.032-.525-.3l-.006-1.955a1.15,1.15,0,0,1,.521-.9Z" transform="translate(-59.052 -125.485)" fill="#dde9fe"/>
                </g>
              </g>
              <g id="Grupo_1223514" data-name="Grupo 1223514" transform="translate(0.557)">
                <g id="Grupo_1223513" data-name="Grupo 1223513">
                  <path id="Trazado_1297449" data-name="Trazado 1297449" d="M62.054,90.932a.166.166,0,0,1-.083-.022L61.43,90.6a.168.168,0,1,1,.167-.293l.4.225,1.777-3.078a.168.168,0,0,1,.292.169L62.2,90.848a.169.169,0,0,1-.146.084Z" transform="translate(-61.345 -87.371)" fill="#285294"/>
                </g>
              </g>
              <g id="Grupo_1223516" data-name="Grupo 1223516" transform="translate(0.557 4.245)">
                <g id="Grupo_1223515" data-name="Grupo 1223515">
                  <path id="Trazado_1297450" data-name="Trazado 1297450" d="M62.054,108.4a.167.167,0,0,1-.083-.022l-.541-.308a.168.168,0,0,1,.167-.293l.4.225,1.777-3.078a.168.168,0,0,1,.292.169L62.2,108.32A.169.169,0,0,1,62.054,108.4Z" transform="translate(-61.345 -104.844)" fill="#285294"/>
                </g>
              </g>
              <g id="Grupo_1223518" data-name="Grupo 1223518" transform="translate(0.557 8.489)">
                <g id="Grupo_1223517" data-name="Grupo 1223517">
                  <path id="Trazado_1297451" data-name="Trazado 1297451" d="M62.054,125.878a.166.166,0,0,1-.083-.022l-.541-.308a.168.168,0,0,1,.167-.293l.4.225,1.777-3.078a.168.168,0,0,1,.292.169L62.2,125.794a.169.169,0,0,1-.146.084Z" transform="translate(-61.345 -122.317)" fill="#285294"/>
                </g>
              </g>
            </g>
            <g id="Grupo_1223535" data-name="Grupo 1223535" transform="translate(4.547)">
              <g id="Grupo_1223522" data-name="Grupo 1223522">
                <g id="Grupo_1223521" data-name="Grupo 1223521">
                  <g id="Grupo_1223520" data-name="Grupo 1223520">
                    <path id="Trazado_1297452" data-name="Trazado 1297452" d="M77.992,71.314a.22.22,0,0,1-.11-.411L88.107,65a.22.22,0,0,1,.22.381L78.1,71.284a.219.219,0,0,1-.11.03Z" transform="translate(-77.772 -64.97)" fill="#dde9fe"/>
                  </g>
                </g>
              </g>
              <g id="Grupo_1223525" data-name="Grupo 1223525" transform="translate(0 2.388)">
                <g id="Grupo_1223524" data-name="Grupo 1223524">
                  <g id="Grupo_1223523" data-name="Grupo 1223523">
                    <path id="Trazado_1297453" data-name="Trazado 1297453" d="M77.992,81.142a.22.22,0,0,1-.11-.411l10.225-5.9a.22.22,0,1,1,.22.381L78.1,81.113A.219.219,0,0,1,77.992,81.142Z" transform="translate(-77.772 -74.798)" fill="#dde9fe"/>
                  </g>
                </g>
              </g>
              <g id="Grupo_1223528" data-name="Grupo 1223528" transform="translate(0 4.775)">
                <g id="Grupo_1223527" data-name="Grupo 1223527">
                  <g id="Grupo_1223526" data-name="Grupo 1223526">
                    <path id="Trazado_1297454" data-name="Trazado 1297454" d="M77.992,90.971a.22.22,0,0,1-.11-.411l10.225-5.9a.22.22,0,1,1,.22.381L78.1,90.942a.219.219,0,0,1-.11.03Z" transform="translate(-77.772 -84.627)" fill="#dde9fe"/>
                  </g>
                </g>
              </g>
              <g id="Grupo_1223531" data-name="Grupo 1223531" transform="translate(0 7.163)">
                <g id="Grupo_1223530" data-name="Grupo 1223530">
                  <g id="Grupo_1223529" data-name="Grupo 1223529">
                    <path id="Trazado_1297455" data-name="Trazado 1297455" d="M77.992,100.8a.22.22,0,0,1-.11-.411l10.225-5.9a.22.22,0,0,1,.22.381l-10.225,5.9A.219.219,0,0,1,77.992,100.8Z" transform="translate(-77.772 -94.456)" fill="#dde9fe"/>
                  </g>
                </g>
              </g>
              <g id="Grupo_1223534" data-name="Grupo 1223534" transform="translate(0 9.551)">
                <g id="Grupo_1223533" data-name="Grupo 1223533">
                  <g id="Grupo_1223532" data-name="Grupo 1223532">
                    <path id="Trazado_1297456" data-name="Trazado 1297456" d="M77.992,110.629a.22.22,0,0,1-.11-.411l10.225-5.9a.22.22,0,0,1,.22.381L78.1,110.6A.219.219,0,0,1,77.992,110.629Z" transform="translate(-77.772 -104.285)" fill="#dde9fe"/>
                  </g>
                </g>
              </g>
            </g>
          </g>
        </g>
      </g>
    </g>
  </g>
</svg>
