<svg xmlns="http://www.w3.org/2000/svg" xmlns:xlink="http://www.w3.org/1999/xlink" width="102" height="102" viewBox="0 0 102 102">
  <defs>
    <filter id="Elipse_11494" x="0" y="0" width="102" height="102" filterUnits="userSpaceOnUse">
      <feOffset dy="3" input="SourceAlpha"/>
      <feGaussianBlur stdDeviation="3" result="blur"/>
      <feFlood flood-opacity="0.161"/>
      <feComposite operator="in" in2="blur"/>
      <feComposite in="SourceGraphic"/>
    </filter>
  </defs>
  <g id="Grupo_1224422" data-name="Grupo 1224422" transform="translate(-696 -1451.729)">
    <g id="Grupo_1223453" data-name="Grupo 1223453" transform="translate(705 1457.729)">
      <g transform="matrix(1, 0, 0, 1, -9, -6)" filter="url(#Elipse_11494)">
        <g id="Elipse_11494-2" data-name="Elipse 11494" transform="translate(9 6)" fill="#e1e7fb" stroke="#fff" stroke-width="4">
          <circle cx="42" cy="42" r="42" stroke="none"/>
          <circle cx="42" cy="42" r="40" fill="none"/>
        </g>
      </g>
    </g>
    <g id="Grupo_1223928" data-name="Grupo 1223928" transform="translate(721.252 1470.313)">
      <g id="Grupo_1223863" data-name="Grupo 1223863" transform="translate(4.665 2.001)">
        <g id="Grupo_1223844" data-name="Grupo 1223844" transform="translate(0 0)">
          <g id="Grupo_1223814" data-name="Grupo 1223814" transform="translate(0 0)">
            <path id="Trazado_1297499" data-name="Trazado 1297499" d="M39.466,29.4a5.053,5.053,0,0,1-2.295,3.972L8.757,49.774a1.617,1.617,0,0,1-1.643.156.194.194,0,0,1-.028-.016l-1.663-.963a1.615,1.615,0,0,1-.672-1.477L4.668,22.694a5.053,5.053,0,0,1,2.295-3.972l28.416-16.4a1.616,1.616,0,0,1,1.635-.162l1.7.983a.723.723,0,0,0-.088-.044,1.554,1.554,0,0,1,.758,1.521Z" transform="translate(-4.668 -2.002)" fill="#dde9fe"/>
          </g>
          <g id="Grupo_1223817" data-name="Grupo 1223817">
            <g id="Grupo_1223816" data-name="Grupo 1223816">
              <g id="Grupo_1223815" data-name="Grupo 1223815">
                <path id="Trazado_1297500" data-name="Trazado 1297500" d="M38.709,3.14A1.626,1.626,0,0,0,37.07,3.3L8.655,19.706a5.046,5.046,0,0,0-2.293,3.971l.085,24.781a1.609,1.609,0,0,0,.671,1.476l-1.7-.984a1.614,1.614,0,0,1-.671-1.478L4.666,22.693a5.056,5.056,0,0,1,2.3-3.972l28.416-16.4a1.619,1.619,0,0,1,1.637-.161Z" transform="translate(-4.665 -2.001)" fill="#678aee"/>
              </g>
            </g>
          </g>
          <g id="Grupo_1223818" data-name="Grupo 1223818" transform="translate(1.695 0.985)">
            <path id="Trazado_1297501" data-name="Trazado 1297501" d="M43.876,7.255c1.272-.734,2.3-.146,2.309,1.314l.085,24.78a5.055,5.055,0,0,1-2.294,3.973L15.56,53.727c-1.272.734-2.3.144-2.309-1.316l-.085-24.78A5.053,5.053,0,0,1,15.46,23.66Z" transform="translate(-13.166 -6.939)" fill="#dde9fe"/>
          </g>
          <g id="Grupo_1223819" data-name="Grupo 1223819" transform="translate(3.175 3.156)">
            <path id="Trazado_1297502" data-name="Trazado 1297502" d="M50.732,42.073a3.592,3.592,0,0,1-1.555,2.687L21.955,60.48a.858.858,0,0,1-1.287-.74l-.081-23.394a3.589,3.589,0,0,1,1.554-2.685L49.367,17.945a.858.858,0,0,1,1.286.74Z" transform="translate(-20.588 -17.829)" fill="#fff"/>
          </g>
          <g id="Grupo_1223843" data-name="Grupo 1223843" transform="translate(7.723 9.376)">
            <g id="Grupo_1223829" data-name="Grupo 1223829" transform="translate(0 9.996)">
              <g id="Grupo_1223828" data-name="Grupo 1223828">
                <g id="Grupo_1223821" data-name="Grupo 1223821" transform="translate(16.98)">
                  <g id="Grupo_1223820" data-name="Grupo 1223820">
                    <path id="Trazado_1297503" data-name="Trazado 1297503" d="M131.646,99.291c.522-.3.946-.06.947.537l.038,8.354a2.071,2.071,0,0,1-.941,1.63l-2.143,1.237c-.522.3-.945.06-.947-.54l-.038-8.354a2.07,2.07,0,0,1,.941-1.627Z" transform="translate(-128.562 -99.161)" fill="#dde9fe"/>
                  </g>
                </g>
                <g id="Grupo_1223823" data-name="Grupo 1223823" transform="translate(11.328 5.666)">
                  <g id="Grupo_1223822" data-name="Grupo 1223822">
                    <path id="Trazado_1297504" data-name="Trazado 1297504" d="M103.3,127.708c.52-.3.943-.059.944.541l.031,5.953a2.07,2.07,0,0,1-.938,1.628l-2.145,1.239c-.52.3-.943.059-.944-.541l-.031-5.953a2.07,2.07,0,0,1,.938-1.628Z" transform="translate(-100.213 -127.58)" fill="#b0c4ff"/>
                  </g>
                </g>
                <g id="Grupo_1223825" data-name="Grupo 1223825" transform="translate(5.68 11.448)">
                  <g id="Grupo_1223824" data-name="Grupo 1223824">
                    <path id="Trazado_1297505" data-name="Trazado 1297505" d="M74.967,156.705c.522-.3.946-.06.947.54l.017,3.439a2.071,2.071,0,0,1-.941,1.63l-2.142,1.237c-.522.3-.946.06-.947-.54l-.017-3.439a2.071,2.071,0,0,1,.941-1.63Z" transform="translate(-71.883 -156.575)" fill="#dde9fe"/>
                  </g>
                </g>
                <g id="Grupo_1223827" data-name="Grupo 1223827" transform="translate(0 9.804)">
                  <g id="Grupo_1223826" data-name="Grupo 1223826">
                    <path id="Trazado_1297506" data-name="Trazado 1297506" d="M46.481,148.461c.522-.3.946-.06.947.537l.038,8.353a2.071,2.071,0,0,1-.941,1.63l-2.142,1.237c-.522.3-.946.06-.947-.54l-.038-8.353a2.07,2.07,0,0,1,.941-1.627Z" transform="translate(-43.398 -148.331)" fill="#c2d0f9"/>
                  </g>
                </g>
              </g>
            </g>
            <g id="Grupo_1223842" data-name="Grupo 1223842" transform="translate(0.387)">
              <g id="Grupo_1223833" data-name="Grupo 1223833" transform="translate(0.324 0.992)">
                <g id="Grupo_1223832" data-name="Grupo 1223832">
                  <g id="Grupo_1223831" data-name="Grupo 1223831">
                    <g id="Grupo_1223830" data-name="Grupo 1223830">
                      <path id="Trazado_1297507" data-name="Trazado 1297507" d="M47.39,71.5a.422.422,0,0,1-.344-.666l5.73-8.013a.422.422,0,0,1,.612-.082l4.445,3.636L64.122,54.2a.422.422,0,0,1,.715.448L58.294,67.226a.422.422,0,0,1-.626.1L53.2,63.675l-5.467,7.643a.421.421,0,0,1-.345.178Z" transform="translate(-46.968 -54)" fill="#dde9fe"/>
                    </g>
                  </g>
                </g>
              </g>
              <g id="Grupo_1223835" data-name="Grupo 1223835" transform="translate(16.192)">
                <g id="Grupo_1223834" data-name="Grupo 1223834">
                  <path id="Trazado_1297508" data-name="Trazado 1297508" d="M127.981,49.223c.794-.459,1.44-.091,1.443.82a3.159,3.159,0,0,1-1.433,2.483c-.793.458-1.439.09-1.442-.823a3.158,3.158,0,0,1,1.432-2.48Z" transform="translate(-126.548 -49.026)" fill="#6a95d3"/>
                </g>
              </g>
              <g id="Grupo_1223837" data-name="Grupo 1223837" transform="translate(9.897 11.844)">
                <g id="Grupo_1223836" data-name="Grupo 1223836">
                  <path id="Trazado_1297509" data-name="Trazado 1297509" d="M96.413,108.629c.794-.459,1.44-.091,1.443.82a3.159,3.159,0,0,1-1.433,2.483c-.793.458-1.439.09-1.442-.823a3.158,3.158,0,0,1,1.432-2.48Z" transform="translate(-94.98 -108.431)" fill="#6a95d3"/>
                </g>
              </g>
              <g id="Grupo_1223839" data-name="Grupo 1223839" transform="translate(5.052 8.62)">
                <g id="Grupo_1223838" data-name="Grupo 1223838">
                  <path id="Trazado_1297510" data-name="Trazado 1297510" d="M72.111,92.456c.794-.459,1.44-.091,1.443.82a3.159,3.159,0,0,1-1.433,2.483c-.793.458-1.439.09-1.442-.823A3.158,3.158,0,0,1,72.111,92.456Z" transform="translate(-70.678 -92.259)" fill="#6a95d3"/>
                </g>
              </g>
              <g id="Grupo_1223841" data-name="Grupo 1223841" transform="translate(0 15.442)">
                <g id="Grupo_1223840" data-name="Grupo 1223840">
                  <path id="Trazado_1297511" data-name="Trazado 1297511" d="M46.773,126.673c.794-.459,1.44-.091,1.443.82a3.159,3.159,0,0,1-1.433,2.483c-.793.458-1.439.09-1.442-.823a3.158,3.158,0,0,1,1.432-2.48Z" transform="translate(-45.341 -126.475)" fill="#6a95d3"/>
                </g>
              </g>
            </g>
          </g>
        </g>
        <g id="Grupo_1223847" data-name="Grupo 1223847" transform="translate(10.594 42.954)">
          <g id="Grupo_1223846" data-name="Grupo 1223846">
            <g id="Grupo_1223845" data-name="Grupo 1223845">
              <path id="Trazado_1297512" data-name="Trazado 1297512" d="M69.374,220.812l-.006,1.248a2.87,2.87,0,0,1-1.681,2.353,9.012,9.012,0,0,1-8.181,0,2.9,2.9,0,0,1-1.709-2.387l.006-1.208v-.042s0,.008,0,.013a2.858,2.858,0,0,1,1.68-2.377,9.012,9.012,0,0,1,8.181,0A2.888,2.888,0,0,1,69.374,220.812Z" transform="translate(-57.798 -217.432)" fill="#b0c4ff"/>
            </g>
          </g>
        </g>
        <g id="Grupo_1223853" data-name="Grupo 1223853" transform="translate(10.594 42.954)">
          <g id="Grupo_1223848" data-name="Grupo 1223848" transform="translate(0 3.334)">
            <path id="Trazado_1297513" data-name="Trazado 1297513" d="M69.373,234.191l0,1.261a2.872,2.872,0,0,1-1.681,2.352,9.012,9.012,0,0,1-8.18,0,2.9,2.9,0,0,1-1.709-2.386l0-1.261a2.9,2.9,0,0,0,1.709,2.386,9.012,9.012,0,0,0,8.18,0,2.872,2.872,0,0,0,1.681-2.352Z" transform="translate(-57.798 -234.158)" fill="#4860a7"/>
          </g>
          <g id="Grupo_1223849" data-name="Grupo 1223849" transform="translate(0.005)">
            <path id="Trazado_1297514" data-name="Trazado 1297514" d="M67.686,218.416c2.266,1.308,2.278,3.429.027,4.737a9.012,9.012,0,0,1-8.18,0c-2.268-1.31-2.28-3.43-.027-4.74a9.012,9.012,0,0,1,8.181,0Z" transform="translate(-57.823 -217.434)" fill="#b0c4ff"/>
          </g>
          <g id="Grupo_1223850" data-name="Grupo 1223850" transform="translate(0.724 0.719)">
            <path id="Trazado_1297515" data-name="Trazado 1297515" d="M66.511,226.3a7.6,7.6,0,0,1-3.734-.885,2.267,2.267,0,0,1-1.35-1.757,2.206,2.206,0,0,1,1.325-1.739,8.3,8.3,0,0,1,7.461,0,2.265,2.265,0,0,1,1.348,1.756,2.2,2.2,0,0,1-1.323,1.738,7.545,7.545,0,0,1-3.726.885Z" transform="translate(-61.427 -221.038)" fill="#fff"/>
          </g>
          <g id="Grupo_1223852" data-name="Grupo 1223852" transform="translate(3.853 2.114)">
            <g id="Grupo_1223851" data-name="Grupo 1223851">
              <path id="Trazado_1297516" data-name="Trazado 1297516" d="M79.067,230.281a.314.314,0,0,1,.089-.034,3.289,3.289,0,0,0,.829-.3l-.9-.524a5.766,5.766,0,0,1-.606.172,1.942,1.942,0,0,1-.54.042,1.129,1.129,0,0,1-.5-.152.633.633,0,0,1-.275-.277.383.383,0,0,1,.013-.34.949.949,0,0,1,.343-.357l-.275-.16a.088.088,0,0,1-.053-.07c0-.026.015-.049.05-.069a.265.265,0,0,1,.243,0l.27.157a3.758,3.758,0,0,1,.818-.321.335.335,0,0,1,.266.027.126.126,0,0,1,.071.091c0,.036-.017.068-.064.1a.327.327,0,0,1-.078.028,3.288,3.288,0,0,0-.683.271l.933.542a6.119,6.119,0,0,1,.617-.188,1.9,1.9,0,0,1,.547-.046,1.211,1.211,0,0,1,.537.165.553.553,0,0,1,.264.284.391.391,0,0,1-.051.341,1.132,1.132,0,0,1-.365.344l.278.162c.035.02.051.043.051.068s-.019.05-.055.07a.234.234,0,0,1-.116.031.22.22,0,0,1-.12-.031l-.278-.162a4.379,4.379,0,0,1-.982.354.423.423,0,0,1-.144.007.3.3,0,0,1-.128-.037.12.12,0,0,1-.07-.093C79,230.341,79.019,230.308,79.067,230.281Zm1.159-.47q.516-.344.11-.581a.572.572,0,0,0-.379-.057,3.539,3.539,0,0,0-.574.148Zm-2.375-1.1a.557.557,0,0,0-.236.3c-.02.1.029.183.149.252a.649.649,0,0,0,.4.079,2.5,2.5,0,0,0,.55-.132Z" transform="translate(-77.124 -228.036)" fill="#213b8e"/>
            </g>
          </g>
        </g>
        <g id="Grupo_1223856" data-name="Grupo 1223856" transform="translate(20.58 37.525)">
          <g id="Grupo_1223855" data-name="Grupo 1223855">
            <g id="Grupo_1223854" data-name="Grupo 1223854">
              <path id="Trazado_1297517" data-name="Trazado 1297517" d="M119.459,193.585l-.006,1.248a2.87,2.87,0,0,1-1.681,2.353,9.012,9.012,0,0,1-8.181,0,2.9,2.9,0,0,1-1.709-2.387l.006-1.208v-.042s0,.008,0,.013a2.858,2.858,0,0,1,1.68-2.377,9.012,9.012,0,0,1,8.181,0,2.888,2.888,0,0,1,1.709,2.4Z" transform="translate(-107.883 -190.205)" fill="#b0c4ff"/>
            </g>
          </g>
        </g>
        <g id="Grupo_1223862" data-name="Grupo 1223862" transform="translate(20.58 37.525)">
          <g id="Grupo_1223857" data-name="Grupo 1223857" transform="translate(0 3.334)">
            <path id="Trazado_1297518" data-name="Trazado 1297518" d="M119.458,206.964l0,1.261a2.872,2.872,0,0,1-1.681,2.352,9.012,9.012,0,0,1-8.18,0,2.9,2.9,0,0,1-1.709-2.386l0-1.261a2.9,2.9,0,0,0,1.709,2.386,9.012,9.012,0,0,0,8.18,0,2.872,2.872,0,0,0,1.681-2.352Z" transform="translate(-107.883 -206.931)" fill="#4860a7"/>
          </g>
          <g id="Grupo_1223858" data-name="Grupo 1223858" transform="translate(0.005)">
            <path id="Trazado_1297519" data-name="Trazado 1297519" d="M117.771,191.189c2.266,1.308,2.278,3.429.027,4.737a9.012,9.012,0,0,1-8.18,0c-2.268-1.31-2.28-3.43-.027-4.74A9.012,9.012,0,0,1,117.771,191.189Z" transform="translate(-107.908 -190.207)" fill="#c2d0f9"/>
          </g>
          <g id="Grupo_1223859" data-name="Grupo 1223859" transform="translate(0.724 0.718)">
            <path id="Trazado_1297520" data-name="Trazado 1297520" d="M116.6,199.076a7.6,7.6,0,0,1-3.734-.885,2.267,2.267,0,0,1-1.35-1.757,2.206,2.206,0,0,1,1.325-1.739,8.3,8.3,0,0,1,7.461,0,2.265,2.265,0,0,1,1.348,1.756,2.2,2.2,0,0,1-1.323,1.738,7.545,7.545,0,0,1-3.726.885Z" transform="translate(-111.512 -193.811)" fill="#fff"/>
          </g>
          <g id="Grupo_1223861" data-name="Grupo 1223861" transform="translate(3.853 2.114)">
            <g id="Grupo_1223860" data-name="Grupo 1223860">
              <path id="Trazado_1297521" data-name="Trazado 1297521" d="M129.152,203.054a.314.314,0,0,1,.089-.034,3.289,3.289,0,0,0,.829-.3l-.9-.524a5.766,5.766,0,0,1-.606.172,1.942,1.942,0,0,1-.54.042,1.129,1.129,0,0,1-.5-.152.633.633,0,0,1-.275-.277.383.383,0,0,1,.014-.34.949.949,0,0,1,.343-.357l-.275-.16a.088.088,0,0,1-.053-.07c0-.026.015-.049.05-.069a.265.265,0,0,1,.243,0l.27.157a3.759,3.759,0,0,1,.818-.321.335.335,0,0,1,.266.027.126.126,0,0,1,.071.091c0,.036-.017.068-.064.1a.327.327,0,0,1-.078.028,3.288,3.288,0,0,0-.683.271l.933.542a6.115,6.115,0,0,1,.617-.188,1.9,1.9,0,0,1,.547-.046,1.211,1.211,0,0,1,.537.165.553.553,0,0,1,.264.284.391.391,0,0,1-.051.341,1.132,1.132,0,0,1-.365.344l.278.162c.035.02.051.043.051.068s-.019.05-.055.07a.234.234,0,0,1-.116.031.22.22,0,0,1-.12-.031l-.278-.162a4.379,4.379,0,0,1-.982.354.423.423,0,0,1-.144.007.305.305,0,0,1-.128-.037.12.12,0,0,1-.07-.093C129.081,203.114,129.1,203.081,129.152,203.054Zm1.159-.47q.516-.344.11-.581a.572.572,0,0,0-.379-.057,3.539,3.539,0,0,0-.574.148Zm-2.375-1.1a.557.557,0,0,0-.236.3c-.02.1.029.183.149.252a.649.649,0,0,0,.4.079,2.5,2.5,0,0,0,.55-.132Z" transform="translate(-127.209 -200.809)" fill="#213b8e"/>
            </g>
          </g>
        </g>
      </g>
    </g>
  </g>
</svg>
