<svg xmlns="http://www.w3.org/2000/svg" xmlns:xlink="http://www.w3.org/1999/xlink" width="102" height="102" viewBox="0 0 102 102">
  <defs>
    <filter id="Elipse_11494" x="0" y="0" width="102" height="102" filterUnits="userSpaceOnUse">
      <feOffset dy="3" input="SourceAlpha"/>
      <feGaussianBlur stdDeviation="3" result="blur"/>
      <feFlood flood-opacity="0.161"/>
      <feComposite operator="in" in2="blur"/>
      <feComposite in="SourceGraphic"/>
    </filter>
  </defs>
  <g id="Grupo_1224427" data-name="Grupo 1224427" transform="translate(-8211.949 10143.357)">
    <g id="Grupo_1223460" data-name="Grupo 1223460" transform="translate(8220.949 -10137.357)">
      <g transform="matrix(1, 0, 0, 1, -9, -6)" filter="url(#Elipse_11494)">
        <g id="Elipse_11494-2" data-name="Elipse 11494" transform="translate(9 6)" fill="#e1e7fb" stroke="#fff" stroke-width="4">
          <circle cx="42" cy="42" r="42" stroke="none"/>
          <circle cx="42" cy="42" r="40" fill="none"/>
        </g>
      </g>
    </g>
    <g id="_x35_1" transform="translate(8236.449 -10121.359)">
      <g id="Grupo_1224266" data-name="Grupo 1224266">
        <g id="Grupo_1224265" data-name="Grupo 1224265">
          <path id="Trazado_1297659" data-name="Trazado 1297659" d="M38.24,30.612a5.523,5.523,0,0,1-2.5,4.33L9.38,50.162a1.719,1.719,0,0,1-1.86.12l-3.11-1.81a1.718,1.718,0,0,1-.72-1.6l-.06-23.2,3.18,1.85h.01L38.18,7.412Z" fill="#dedffb"/>
        </g>
      </g>
      <g id="Grupo_1224268" data-name="Grupo 1224268">
        <g id="Grupo_1224267" data-name="Grupo 1224267">
          <path id="Trazado_1297660" data-name="Trazado 1297660" d="M38.24,30.612a5.523,5.523,0,0,1-2.5,4.33L9.38,50.162a1.719,1.719,0,0,1-1.86.12l-3.11-1.81a1.718,1.718,0,0,1-.72-1.6l-.06-23.2,3.18,1.85.06,23.15-.05-23.15L38.18,7.412Z" fill="#f8f9fe"/>
        </g>
      </g>
      <g id="Grupo_1224269" data-name="Grupo 1224269">
        <path id="Trazado_1297661" data-name="Trazado 1297661" d="M38.18,6.122v1.29L6.82,25.522l-.01-1.29a5.47,5.47,0,0,1,1.3-3.27,5.421,5.421,0,0,0-1.31,3.27l.01,1.29-3.18-1.85-.01-1.29a5.521,5.521,0,0,1,2.49-4.32L32.47,2.842a1.8,1.8,0,0,1,1.79-.18l3.17,1.85h.01a1.778,1.778,0,0,1,.74,1.61Z" fill="#1d2943"/>
      </g>
      <g id="Grupo_1224273" data-name="Grupo 1224273">
        <g id="Grupo_1224272" data-name="Grupo 1224272">
          <g id="Grupo_1224271" data-name="Grupo 1224271">
            <g id="Grupo_1224270" data-name="Grupo 1224270">
              <path id="Trazado_1297662" data-name="Trazado 1297662" d="M49.38,11.912c.01,3.63-2.96,8.29-6.61,10.4a7.623,7.623,0,0,1-2.68.99,12.075,12.075,0,0,1-3.64,3.08,14.7,14.7,0,0,1-1.61.81l-1.96-1.14a9.464,9.464,0,0,0,3-4.2l-.14-.08a3.6,3.6,0,0,1-1.58-3.34c-.01-3.63,2.94-8.29,6.62-10.41,2.01-1.17,3.82-1.32,5.04-.6l1.96,1.13a.15.15,0,0,0-.07-.03,3.617,3.617,0,0,1,1.67,3.39Z" fill="#7e5af2"/>
            </g>
          </g>
        </g>
      </g>
      <g id="Grupo_1224360" data-name="Grupo 1224360">
        <g id="Grupo_1224328" data-name="Grupo 1224328">
          <g id="Grupo_1224316" data-name="Grupo 1224316">
            <g id="Grupo_1224315" data-name="Grupo 1224315">
              <g id="Grupo_1224314" data-name="Grupo 1224314">
                <g id="Grupo_1224313" data-name="Grupo 1224313">
                  <g id="Grupo_1224312" data-name="Grupo 1224312">
                    <g id="Grupo_1224311" data-name="Grupo 1224311">
                      <g id="Grupo_1224310" data-name="Grupo 1224310">
                        <g id="Grupo_1224285" data-name="Grupo 1224285">
                          <g id="Grupo_1224280" data-name="Grupo 1224280">
                            <g id="Grupo_1224275" data-name="Grupo 1224275">
                              <g id="Grupo_1224274" data-name="Grupo 1224274">
                                <path id="Trazado_1297663" data-name="Trazado 1297663" d="M7.6,50.328,4.415,48.477a1.731,1.731,0,0,1-.725-1.606l-.059-23.2L6.814,25.52l.059,23.2A1.731,1.731,0,0,0,7.6,50.328Z" fill="#dedffb"/>
                              </g>
                            </g>
                            <g id="Grupo_1224277" data-name="Grupo 1224277">
                              <g id="Grupo_1224276" data-name="Grupo 1224276">
                                <path id="Trazado_1297664" data-name="Trazado 1297664" d="M38.237,30.615a5.525,5.525,0,0,1-2.5,4.328L9.381,50.159c-1.381.793-2.507.157-2.507-1.43L6.815,25.518l31.363-18.1Z" fill="#f8f9fe"/>
                              </g>
                            </g>
                            <g id="Grupo_1224279" data-name="Grupo 1224279">
                              <g id="Grupo_1224278" data-name="Grupo 1224278">
                                <path id="Trazado_1297665" data-name="Trazado 1297665" d="M38.18,6.122v1.29L6.82,25.522H6.81l-3.18-1.85-.01-1.29a5.521,5.521,0,0,1,2.49-4.32L32.47,2.842a1.8,1.8,0,0,1,1.79-.18l3.18,1.85a.3.3,0,0,0-.1-.04,1.685,1.685,0,0,1,.84,1.65Z" fill="#1d2943"/>
                              </g>
                            </g>
                          </g>
                          <g id="Grupo_1224282" data-name="Grupo 1224282">
                            <g id="Grupo_1224281" data-name="Grupo 1224281">
                              <path id="Trazado_1297666" data-name="Trazado 1297666" d="M38.178,6.12V7.413L6.815,25.518l-.01-1.283a5.525,5.525,0,0,1,2.5-4.328L35.662,4.691c1.381-.8,2.507-.157,2.516,1.43Z" fill="#1d2943"/>
                            </g>
                          </g>
                          <g id="Grupo_1224284" data-name="Grupo 1224284">
                            <g id="Grupo_1224283" data-name="Grupo 1224283">
                              <path id="Trazado_1297667" data-name="Trazado 1297667" d="M37.442,4.514a1.788,1.788,0,0,0-1.777.177L9.306,19.908a5.51,5.51,0,0,0-2.5,4.324l.01,1.289L3.631,23.67l-.01-1.289a5.527,5.527,0,0,1,2.495-4.324L32.473,2.841a1.807,1.807,0,0,1,1.788-.177Z" fill="#4c5c75"/>
                            </g>
                          </g>
                        </g>
                        <g id="Grupo_1224309" data-name="Grupo 1224309">
                          <g id="Grupo_1224290" data-name="Grupo 1224290">
                            <g id="Grupo_1224287" data-name="Grupo 1224287">
                              <g id="Grupo_1224286" data-name="Grupo 1224286">
                                <path id="Trazado_1297668" data-name="Trazado 1297668" d="M36.965,5.943c-.127-.078-.112.789-.308.907L26.449,12.925c-.392.215-1.237.116-1.237.557,0,.225-.251.383-.124.452l-.5-.294a.479.479,0,0,1-.206-.45,1.537,1.537,0,0,1,.7-1.2L35.966,5.7a.475.475,0,0,1,.5-.049Z" fill="#fff"/>
                              </g>
                            </g>
                            <g id="Grupo_1224289" data-name="Grupo 1224289">
                              <g id="Grupo_1224288" data-name="Grupo 1224288">
                                <path id="Trazado_1297669" data-name="Trazado 1297669" d="M37.172,6.391a1.553,1.553,0,0,1-.7,1.2L25.589,13.882c-.392.225-.7.049-.7-.4a1.552,1.552,0,0,1,.7-1.2L36.467,5.99c.392-.225.705-.049.705.4Z" fill="#d3daea"/>
                              </g>
                            </g>
                          </g>
                          <g id="Grupo_1224295" data-name="Grupo 1224295">
                            <g id="Grupo_1224294" data-name="Grupo 1224294">
                              <g id="Grupo_1224291" data-name="Grupo 1224291">
                                <path id="Trazado_1297670" data-name="Trazado 1297670" d="M11.15,20.882a.587.587,0,0,1,.25.55,1.877,1.877,0,0,1-.86,1.48.6.6,0,0,1-.61.06.14.14,0,0,1-.04-.03l-.46-.26a.6.6,0,0,1-.26-.55,1.905,1.905,0,0,1,.87-1.49.583.583,0,0,1,.6-.06l.47.28C11.12,20.872,11.14,20.872,11.15,20.882Z" fill="#d3daea"/>
                              </g>
                              <g id="Grupo_1224292" data-name="Grupo 1224292">
                                <path id="Trazado_1297671" data-name="Trazado 1297671" d="M14.04,19.212a.587.587,0,0,1,.25.55,1.866,1.866,0,0,1-.85,1.48.6.6,0,0,1-.61.06l-.05-.03L12.33,21a.571.571,0,0,1-.26-.55,1.875,1.875,0,0,1,.85-1.47.6.6,0,0,1,.62-.06l.42.25.04.02c.02.01.03.01.04.02Z" fill="#d3daea"/>
                              </g>
                              <g id="Grupo_1224293" data-name="Grupo 1224293">
                                <path id="Trazado_1297672" data-name="Trazado 1297672" d="M17.19,18.092a1.892,1.892,0,0,1-.86,1.48.6.6,0,0,1-.61.06l-.04-.03-.46-.26a.627.627,0,0,1-.25-.56,1.909,1.909,0,0,1,.85-1.48.644.644,0,0,1,.62-.06l.46.28c.01.01.03.01.04.02A.587.587,0,0,1,17.19,18.092Z" fill="#d3daea"/>
                              </g>
                            </g>
                          </g>
                          <g id="Grupo_1224298" data-name="Grupo 1224298">
                            <g id="Grupo_1224297" data-name="Grupo 1224297">
                              <g id="Grupo_1224296" data-name="Grupo 1224296">
                                <path id="Trazado_1297673" data-name="Trazado 1297673" d="M10.537,20.94c.474-.274.86-.054.862.491a1.887,1.887,0,0,1-.856,1.483c-.474.274-.86.053-.861-.491a1.886,1.886,0,0,1,.856-1.482Z" fill="#d3daea"/>
                              </g>
                            </g>
                          </g>
                          <g id="Grupo_1224301" data-name="Grupo 1224301">
                            <g id="Grupo_1224300" data-name="Grupo 1224300">
                              <g id="Grupo_1224299" data-name="Grupo 1224299">
                                <path id="Trazado_1297674" data-name="Trazado 1297674" d="M13.432,19.269c.474-.274.86-.054.862.491a1.887,1.887,0,0,1-.856,1.483c-.474.274-.86.053-.861-.491a1.886,1.886,0,0,1,.856-1.482Z" fill="#d3daea"/>
                              </g>
                            </g>
                          </g>
                          <g id="Grupo_1224308" data-name="Grupo 1224308">
                            <g id="Grupo_1224305" data-name="Grupo 1224305">
                              <g id="Grupo_1224302" data-name="Grupo 1224302">
                                <path id="Trazado_1297675" data-name="Trazado 1297675" d="M10.642,20.584l.509.294a.624.624,0,0,0-.617.059,1.9,1.9,0,0,0-.852,1.488.614.614,0,0,0,.245.548l-.5-.294a.6.6,0,0,1-.255-.548,1.887,1.887,0,0,1,.862-1.488.606.606,0,0,1,.607-.059Z" fill="#fff"/>
                              </g>
                              <g id="Grupo_1224303" data-name="Grupo 1224303">
                                <path id="Trazado_1297676" data-name="Trazado 1297676" d="M13.541,18.92l.5.294a.583.583,0,0,0-.607.059,1.86,1.86,0,0,0-.852,1.479.582.582,0,0,0,.245.548l-.5-.294a.586.586,0,0,1-.255-.548,1.886,1.886,0,0,1,.852-1.479A.6.6,0,0,1,13.541,18.92Z" fill="#fff"/>
                              </g>
                              <g id="Grupo_1224304" data-name="Grupo 1224304">
                                <path id="Trazado_1297677" data-name="Trazado 1297677" d="M16.938,17.539a.606.606,0,0,0-.607.059,1.885,1.885,0,0,0-.862,1.479.615.615,0,0,0,.255.558l-.509-.294a.621.621,0,0,1-.245-.558,1.9,1.9,0,0,1,.852-1.479.624.624,0,0,1,.617-.059Z" fill="#fff"/>
                              </g>
                            </g>
                            <g id="Grupo_1224307" data-name="Grupo 1224307">
                              <g id="Grupo_1224306" data-name="Grupo 1224306">
                                <path id="Trazado_1297678" data-name="Trazado 1297678" d="M16.327,17.6c.474-.274.86-.054.862.491a1.887,1.887,0,0,1-.856,1.483c-.474.274-.86.053-.861-.491a1.886,1.886,0,0,1,.856-1.482Z" fill="#d3daea"/>
                              </g>
                            </g>
                          </g>
                        </g>
                      </g>
                    </g>
                  </g>
                </g>
              </g>
            </g>
          </g>
          <g id="Grupo_1224327" data-name="Grupo 1224327">
            <g id="Grupo_1224318" data-name="Grupo 1224318">
              <g id="Grupo_1224317" data-name="Grupo 1224317">
                <path id="Trazado_1297679" data-name="Trazado 1297679" d="M20.927,33.47c.04,1.027.712,1.475,1.535,1l.1-.055a3.592,3.592,0,0,0,1.53-2.769.744.744,0,0,1,.588.2,1.3,1.3,0,0,1,.3,1.056l-.129,1.249a.648.648,0,0,1-.282.453.229.229,0,0,1-.144.035l-1.907-.2-1.906,2.4a.506.506,0,0,1-.143.131c-.135.078-.261.034-.284-.126l-.135-1.1a2.809,2.809,0,0,1,.292-1.4,3.466,3.466,0,0,1,.587-.877Z" fill="#df3260"/>
              </g>
            </g>
            <g id="Grupo_1224320" data-name="Grupo 1224320">
              <g id="Grupo_1224319" data-name="Grupo 1224319">
                <path id="Trazado_1297680" data-name="Trazado 1297680" d="M22.99,19.346c2.024-1.168,3.669-.2,3.675,2.143,0,.076,0,.145-.005.224v.034a9.48,9.48,0,0,1-.3,2.088c-.141.586-.272.987-.279,1.009s-.051.323-.122.364c-.02.011-.041,0-.063-.042a2.9,2.9,0,0,1-.243-.827,1.4,1.4,0,0,0-.671-1.161,2.461,2.461,0,0,0-2.195.293l-.607.35a2.611,2.611,0,0,1-2.026.375c-.006.012-.12.242-.293.612a7.759,7.759,0,0,0-.988,3.584,2.8,2.8,0,0,0,.044.5c-.061-.174-.142-.479-.221-.8-.03-.125-.06-.253-.089-.378a7.612,7.612,0,0,1-.062-2.853,6.577,6.577,0,0,1,.232-1.032,1.083,1.083,0,0,1,.446-.594c.161-.093.32-.091.406.053a8.071,8.071,0,0,1,3.357-3.936Z" fill="#aa6256"/>
              </g>
            </g>
            <g id="Grupo_1224322" data-name="Grupo 1224322">
              <g id="Grupo_1224321" data-name="Grupo 1224321">
                <path id="Trazado_1297681" data-name="Trazado 1297681" d="M20.159,24.194a2.611,2.611,0,0,0,2.026-.375l.607-.35a2.461,2.461,0,0,1,2.195-.293,1.4,1.4,0,0,1,.671,1.161,2.9,2.9,0,0,0,.243.827c.022.044.043.054.063.042.072-.041.12-.348.122-.364s.138-.422.279-1.009a.89.89,0,0,1,.262.814,2.23,2.23,0,0,1-.8,1.655,10.522,10.522,0,0,1-1.746,3.776,5.689,5.689,0,0,1-1.632,1.512,2.54,2.54,0,0,1-1.533.388,2.345,2.345,0,0,1-1.87-1.762c-.408.208-.758-.108-.8-.736a2.071,2.071,0,0,1,.445-1.4c.079.326.16.63.221.8a2.8,2.8,0,0,1-.044-.5,7.759,7.759,0,0,1,.988-3.584c.173-.37.287-.6.293-.612Z" fill="#f4d6d4"/>
              </g>
            </g>
            <g id="Grupo_1224324" data-name="Grupo 1224324">
              <g id="Grupo_1224323" data-name="Grupo 1224323">
                <path id="Trazado_1297682" data-name="Trazado 1297682" d="M24.086,30.08l0,1.473c0,.031,0,.061,0,.092a3.592,3.592,0,0,1-1.53,2.769l-.1.055c-.823.475-1.5.027-1.535-1,0-.029,0-.059,0-.09l0-1.4a2.54,2.54,0,0,0,1.533-.388,5.689,5.689,0,0,0,1.632-1.512Z" fill="#f5c9c6"/>
              </g>
            </g>
            <g id="Grupo_1224326" data-name="Grupo 1224326">
              <g id="Grupo_1224325" data-name="Grupo 1224325">
                <path id="Trazado_1297683" data-name="Trazado 1297683" d="M27.352,30.3c.643-.371,1.22-.214,1.427.386l1.347,3.971-15.2,8.776,1.32-5.51a3.359,3.359,0,0,1,1.42-2.029l2.674-1.544a2.809,2.809,0,0,0-.292,1.4l.135,1.1c.023.16.149.2.284.126a.506.506,0,0,0,.143-.131l1.906-2.4,1.907.2a.229.229,0,0,0,.144-.035.648.648,0,0,0,.282-.453l.129-1.249a1.3,1.3,0,0,0-.3-1.056Z" fill="#f45170"/>
              </g>
            </g>
          </g>
        </g>
        <g id="Grupo_1224359" data-name="Grupo 1224359">
          <g id="Grupo_1224336" data-name="Grupo 1224336">
            <g id="Grupo_1224335" data-name="Grupo 1224335">
              <g id="Grupo_1224330" data-name="Grupo 1224330">
                <g id="Grupo_1224329" data-name="Grupo 1224329">
                  <path id="Trazado_1297684" data-name="Trazado 1297684" d="M34.836,27.187l-1.957-1.139a9.483,9.483,0,0,0,3.006-4.2l3.278.668c-.263.883-2.317,2.883-4.327,4.669Z" fill="#986ff9"/>
                </g>
              </g>
              <g id="Grupo_1224332" data-name="Grupo 1224332">
                <g id="Grupo_1224331" data-name="Grupo 1224331">
                  <path id="Trazado_1297685" data-name="Trazado 1297685" d="M47.777,8.554c-1.217-.7-3.033-.555-5.051.609-3.663,2.114-6.631,6.781-6.621,10.411A3.615,3.615,0,0,0,37.7,22.906l-1.959-1.135a3.607,3.607,0,0,1-1.58-3.342C34.146,14.8,37.1,10.142,40.778,8.017c2.008-1.164,3.823-1.313,5.04-.6Z" fill="#b28afd"/>
                </g>
              </g>
              <g id="Grupo_1224334" data-name="Grupo 1224334">
                <g id="Grupo_1224333" data-name="Grupo 1224333">
                  <path id="Trazado_1297686" data-name="Trazado 1297686" d="M42.73,9.16c3.657-2.112,6.637-.88,6.647,2.75s-2.953,8.292-6.61,10.4a7.533,7.533,0,0,1-2.676.987,13.589,13.589,0,0,1-5.255,3.886,9.483,9.483,0,0,0,3.006-4.2,3.562,3.562,0,0,1-1.731-3.42c-.01-3.63,2.953-8.292,6.619-10.409Z" fill="#7e5af2"/>
                </g>
              </g>
            </g>
          </g>
          <g id="Grupo_1224358" data-name="Grupo 1224358">
            <g id="Grupo_1224343" data-name="Grupo 1224343">
              <g id="Grupo_1224342" data-name="Grupo 1224342">
                <g id="Grupo_1224341" data-name="Grupo 1224341">
                  <g id="Grupo_1224340" data-name="Grupo 1224340">
                    <g id="Grupo_1224337" data-name="Grupo 1224337">
                      <path id="Trazado_1297687" data-name="Trazado 1297687" d="M47.92,13.492a2.682,2.682,0,0,1-1.2,2.08.808.808,0,0,1-.89.05c.01.02.02.02.03.03l-.57-.33a.9.9,0,0,1-.35-.78,2.427,2.427,0,0,1,.24-.96,2.785,2.785,0,0,1,.69-.92,2.221,2.221,0,0,1,.27-.19.843.843,0,0,1,.85-.09l.58.33c-.02-.01-.03-.02-.05-.02a.835.835,0,0,1,.4.8Z" fill="#dedffb"/>
                    </g>
                    <g id="Grupo_1224338" data-name="Grupo 1224338">
                      <path id="Trazado_1297688" data-name="Trazado 1297688" d="M40.82,17.582a2.645,2.645,0,0,1-1.19,2.08.808.808,0,0,1-.89.05c.01.02.02.02.03.03l-.57-.34a.831.831,0,0,1-.35-.77,2.348,2.348,0,0,1,.24-.97,2.962,2.962,0,0,1,.69-.91,1.482,1.482,0,0,1,.27-.19.819.819,0,0,1,.85-.09l.58.34a.076.076,0,0,0-.05-.02.807.807,0,0,1,.39.79Z" fill="#dedffb"/>
                    </g>
                    <g id="Grupo_1224339" data-name="Grupo 1224339">
                      <path id="Trazado_1297689" data-name="Trazado 1297689" d="M44.37,15.532a2.625,2.625,0,0,1-1.2,2.08.812.812,0,0,1-.89.06l-.53-.31a.832.832,0,0,1-.35-.77,2.348,2.348,0,0,1,.24-.97,2.718,2.718,0,0,1,.68-.91,1.789,1.789,0,0,1,.28-.2.836.836,0,0,1,.85-.08l.57.33c-.02-.01-.03-.02-.05-.02a.786.786,0,0,1,.4.79Z" fill="#dedffb"/>
                    </g>
                  </g>
                </g>
              </g>
            </g>
            <g id="Grupo_1224345" data-name="Grupo 1224345">
              <g id="Grupo_1224344" data-name="Grupo 1224344">
                <path id="Trazado_1297690" data-name="Trazado 1297690" d="M39.618,16.891c.665-.384,1.2-.077,1.206.687a2.644,2.644,0,0,1-1.2,2.08c-.665.384-1.2.072-1.206-.693a2.634,2.634,0,0,1,1.2-2.075Z" fill="#dedffb"/>
              </g>
            </g>
            <g id="Grupo_1224357" data-name="Grupo 1224357">
              <g id="Grupo_1224356" data-name="Grupo 1224356">
                <g id="Grupo_1224347" data-name="Grupo 1224347">
                  <g id="Grupo_1224346" data-name="Grupo 1224346">
                    <path id="Trazado_1297691" data-name="Trazado 1297691" d="M40.478,16.81a.838.838,0,0,0-.854.078,1.6,1.6,0,0,0-.277.2,2.705,2.705,0,0,0-.688.91,2.412,2.412,0,0,0-.233.965.843.843,0,0,0,.344.777l-.566-.333a.848.848,0,0,1-.355-.777,2.259,2.259,0,0,1,.244-.965,2.82,2.82,0,0,1,.688-.91,1.31,1.31,0,0,1,.266-.189.82.82,0,0,1,.854-.089Z" fill="#fff"/>
                  </g>
                </g>
                <g id="Grupo_1224349" data-name="Grupo 1224349">
                  <g id="Grupo_1224348" data-name="Grupo 1224348">
                    <path id="Trazado_1297692" data-name="Trazado 1297692" d="M43.164,14.846c.665-.384,1.2-.077,1.206.687a2.644,2.644,0,0,1-1.2,2.08c-.665.384-1.2.072-1.206-.693a2.634,2.634,0,0,1,1.2-2.075Z" fill="#dedffb"/>
                  </g>
                </g>
                <g id="Grupo_1224351" data-name="Grupo 1224351">
                  <g id="Grupo_1224350" data-name="Grupo 1224350">
                    <path id="Trazado_1297693" data-name="Trazado 1297693" d="M44.017,14.757a.872.872,0,0,0-.854.089,2.08,2.08,0,0,0-.266.2,2.568,2.568,0,0,0-.688.91,2.22,2.22,0,0,0-.244.965.837.837,0,0,0,.355.777l-.566-.333a.837.837,0,0,1-.355-.777,2.259,2.259,0,0,1,.244-.965,2.677,2.677,0,0,1,.677-.91,1.6,1.6,0,0,1,.277-.2.838.838,0,0,1,.854-.078Z" fill="#fff"/>
                  </g>
                </g>
                <g id="Grupo_1224353" data-name="Grupo 1224353">
                  <g id="Grupo_1224352" data-name="Grupo 1224352">
                    <path id="Trazado_1297694" data-name="Trazado 1297694" d="M46.71,12.8c.665-.384,1.2-.077,1.206.687a2.644,2.644,0,0,1-1.2,2.08c-.665.384-1.2.072-1.206-.693a2.634,2.634,0,0,1,1.2-2.075Z" fill="#dedffb"/>
                  </g>
                </g>
                <g id="Grupo_1224355" data-name="Grupo 1224355">
                  <g id="Grupo_1224354" data-name="Grupo 1224354">
                    <path id="Trazado_1297695" data-name="Trazado 1297695" d="M47.567,12.716a.844.844,0,0,0-.854.089,1.529,1.529,0,0,0-.277.189,2.818,2.818,0,0,0-.688.91,2.419,2.419,0,0,0-.233.976.869.869,0,0,0,.344.777l-.566-.333a.9.9,0,0,1-.355-.777,2.388,2.388,0,0,1,.244-.965,2.864,2.864,0,0,1,.688-.921c.089-.067.177-.133.266-.189a.846.846,0,0,1,.854-.089Z" fill="#fff"/>
                  </g>
                </g>
              </g>
            </g>
          </g>
        </g>
      </g>
    </g>
  </g>
</svg>
